M48
; DRILL file {KiCad 9.0.1} date 2025-12-19T01:31:38-0800
; FORMAT={-:-/ absolute / metric / decimal}
; #@! TF.CreationDate,2025-12-19T01:31:38-08:00
; #@! TF.GenerationSoftware,Kicad,Pcbnew,9.0.1
; #@! TF.FileFunction,Plated,1,6,PTH
FMAT,2
METRIC
; #@! TA.AperFunction,Plated,PTH,ViaDrill
T1C0.300
; #@! TA.AperFunction,Plated,PTH,ViaDrill
T2C0.500
; #@! TA.AperFunction,Plated,PTH,ComponentDrill
T3C0.710
; #@! TA.AperFunction,Plated,PTH,ComponentDrill
T4C0.760
; #@! TA.AperFunction,Plated,PTH,ComponentDrill
T5C0.800
; #@! TA.AperFunction,Plated,PTH,ComponentDrill
T6C1.000
; #@! TA.AperFunction,Plated,PTH,ComponentDrill
T7C1.150
; #@! TA.AperFunction,Plated,PTH,ComponentDrill
T8C1.200
; #@! TA.AperFunction,Plated,PTH,ComponentDrill
T9C1.300
; #@! TA.AperFunction,Plated,PTH,ComponentDrill
T10C1.350
; #@! TA.AperFunction,Plated,PTH,ComponentDrill
T11C1.400
; #@! TA.AperFunction,Plated,PTH,ComponentDrill
T12C1.500
; #@! TA.AperFunction,Plated,PTH,ComponentDrill
T13C1.600
; #@! TA.AperFunction,Plated,PTH,ComponentDrill
T14C1.700
; #@! TA.AperFunction,Plated,PTH,ComponentDrill
T15C5.300
%
G90
G05
T1
X27.5Y-72.5
X27.5Y-80.0
X30.0Y-75.0
X40.0Y-75.0
X41.5Y-60.5
X42.5Y-7.5
X42.5Y-10.0
X42.5Y-12.5
X42.5Y-15.0
X42.5Y-17.5
X42.5Y-20.0
X42.5Y-22.5
X42.5Y-25.0
X42.5Y-27.5
X42.5Y-30.0
X42.5Y-32.5
X42.5Y-35.0
X42.5Y-37.5
X42.5Y-40.0
X42.5Y-42.5
X42.5Y-45.0
X42.5Y-47.5
X44.5Y-59.5
X45.0Y-7.5
X45.0Y-73.5
X47.0Y-43.0
X47.0Y-79.5
X47.5Y-7.5
X48.0Y-78.5
X48.5Y-59.0
X49.438Y-77.5
X49.69Y-72.0
X50.0Y-7.5
X50.0Y-58.5
X50.562Y-52.0
X50.562Y-53.0
X50.562Y-54.0
X50.96Y-72.0
X51.0Y-34.0
X52.0Y-43.0
X52.5Y-7.5
X52.5Y-72.0
X52.562Y-77.5
X52.671Y-28.671
X54.0Y-58.5
X55.0Y-7.5
X55.0Y-10.0
X55.0Y-12.5
X55.0Y-15.0
X55.0Y-17.5
X55.0Y-40.0
X55.0Y-48.5
X56.5Y-74.5
X56.5Y-77.5
X57.0Y-71.0
X57.5Y-37.5
X57.5Y-47.5
X58.0Y-46.0
X58.0Y-51.0
X58.5Y-80.0
X58.5Y-81.0
X58.5Y-82.0
X59.5Y-47.5
X60.0Y-45.0
X60.0Y-52.5
X60.144Y-54.644
X60.5Y-58.5
X60.5Y-61.5
X61.438Y-50.0
X61.438Y-51.75
X62.45Y-71.5
X62.45Y-76.5
X62.5Y-43.0
X64.562Y-50.0
X64.562Y-51.75
X66.0Y-53.5
X66.5Y-61.5
X67.5Y-45.0
X67.5Y-47.5
X67.5Y-50.0
X67.5Y-52.5
X68.675Y-41.675
X69.0Y-56.5
X71.0Y-71.5
X71.0Y-76.5
X75.0Y-85.0
X76.0Y-72.0
X80.0Y-95.0
X82.5Y-7.5
X82.5Y-10.0
X82.5Y-12.5
X82.5Y-15.0
X82.5Y-17.5
X82.5Y-20.0
X82.5Y-22.5
X82.5Y-25.0
X82.5Y-27.5
X82.5Y-30.0
X82.5Y-32.5
X82.5Y-35.0
X82.5Y-37.5
X82.5Y-40.0
X82.5Y-42.5
X82.5Y-45.0
X82.5Y-47.5
X84.5Y-73.5
X84.975Y-59.5
X84.975Y-60.5
X85.0Y-7.5
X86.5Y-84.0
X87.0Y-77.5
X87.5Y-7.5
X87.5Y-83.0
X88.25Y-42.75
X88.5Y-59.0
X88.5Y-78.5
X90.0Y-7.5
X90.0Y-34.5
X90.0Y-58.5
X90.358Y-77.0
X90.38Y-52.0
X90.38Y-53.0
X90.38Y-54.0
X91.31Y-29.31
X92.0Y-89.0
X92.5Y-7.5
X93.0Y-42.25
X93.0Y-72.0
X93.483Y-77.0
X93.817Y-47.5
X95.0Y-7.5
X95.0Y-10.0
X95.0Y-12.5
X95.0Y-15.0
X95.0Y-17.5
X95.0Y-37.5
X95.0Y-58.0
X95.5Y-82.0
X96.5Y-81.0
X96.942Y-48.5
X97.5Y-55.0
X97.5Y-71.0
X98.945Y-75.945
X100.0Y-47.5
X100.0Y-52.5
X100.0Y-100.0
X101.0Y-58.0
X101.817Y-51.0
X102.0Y-89.0
X102.5Y-62.0
X102.83Y-71.5
X102.83Y-76.5
X104.0Y-45.0
X104.942Y-51.0
X105.61Y-41.61
X105.88Y-60.3
X107.5Y-42.5
X107.5Y-45.0
X107.5Y-47.5
X107.5Y-50.0
X107.5Y-52.5
X109.5Y-57.0
X110.0Y-100.0
X111.38Y-71.5
X111.43Y-76.5
X113.0Y-89.0
X116.0Y-71.0
X119.5Y-109.0
X122.5Y-7.5
X122.5Y-10.0
X122.5Y-12.5
X122.5Y-15.0
X122.5Y-17.5
X122.5Y-20.0
X122.5Y-22.5
X122.5Y-25.0
X122.5Y-27.5
X122.5Y-30.0
X122.5Y-32.5
X122.5Y-35.0
X122.5Y-37.5
X122.5Y-40.0
X122.5Y-42.5
X122.5Y-45.0
X122.5Y-47.5
X122.5Y-110.0
X123.0Y-89.0
X123.0Y-129.0
X124.0Y-73.5
X124.324Y-132.788
X124.855Y-59.5
X124.855Y-60.5
X125.0Y-7.5
X125.0Y-100.0
X127.0Y-144.5
X127.5Y-7.5
X127.5Y-79.0
X128.0Y-42.75
X128.39Y-100.844
X128.438Y-99.0
X128.5Y-59.0
X128.5Y-129.5
X128.5Y-133.5
X128.5Y-148.5
X129.0Y-78.0
X129.5Y-58.5
X129.5Y-107.0
X129.5Y-132.0
X129.935Y-72.5
X129.935Y-76.5
X130.0Y-7.5
X130.0Y-90.0
X130.0Y-117.5
X130.362Y-52.0
X130.362Y-53.0
X130.362Y-54.0
X130.5Y-148.58
X131.5Y-105.0
X131.506Y-72.494
X131.562Y-99.0
X131.562Y-100.5
X132.0Y-35.0
X132.46Y-118.0
X132.5Y-7.5
X132.75Y-42.5
X133.0Y-72.5
X133.0Y-99.675
X133.0Y-102.0
X133.0Y-114.5
X133.0Y-142.5
X133.403Y-76.5
X133.5Y-103.5
X133.675Y-47.0
X134.0Y-150.0
X134.18Y-29.5
X134.25Y-85.0
X134.5Y-58.5
X134.5Y-77.0
X134.838Y-131.338
X135.0Y-7.5
X135.0Y-10.0
X135.0Y-12.5
X135.0Y-15.0
X135.0Y-17.5
X135.0Y-40.0
X135.0Y-80.0
X135.25Y-86.0
X135.5Y-117.175
X135.5Y-118.5
X136.0Y-82.0
X136.0Y-142.5
X136.5Y-87.0
X136.5Y-129.675
X136.8Y-48.5
X137.0Y-70.5
X137.0Y-81.0
X137.0Y-104.5
X137.5Y-55.0
X137.5Y-146.0
X138.5Y-113.5
X140.0Y-47.5
X140.0Y-50.0
X140.0Y-52.5
X140.0Y-119.5
X140.5Y-58.0
X140.5Y-74.0
X142.237Y-51.0
X142.5Y-62.0
X142.5Y-75.5
X142.562Y-149.5
X142.8Y-72.45
X143.5Y-145.0
X145.0Y-90.0
X145.0Y-100.0
X145.362Y-51.0
X145.8Y-60.35
X147.5Y-45.0
X147.5Y-47.5
X147.5Y-50.0
X147.5Y-52.5
X147.5Y-55.0
X148.075Y-41.575
X148.5Y-117.0
X149.5Y-56.5
X150.0Y-132.5
X151.8Y-72.45
X153.0Y-76.5
X154.0Y-73.0
X155.0Y-90.0
X155.0Y-100.0
X157.0Y-75.0
X157.0Y-82.0
X160.0Y-80.0
X160.5Y-104.5
X161.5Y-103.5
X161.5Y-135.5
X161.5Y-140.5
X162.0Y-75.0
X162.346Y-7.577
X162.5Y-10.0
X162.5Y-12.5
X162.5Y-15.0
X162.5Y-17.5
X162.5Y-20.0
X162.5Y-22.5
X162.5Y-25.0
X162.5Y-27.5
X162.5Y-30.0
X162.5Y-32.5
X162.5Y-35.0
X162.5Y-37.5
X162.5Y-40.0
X162.5Y-42.5
X162.5Y-45.0
X162.5Y-47.5
X165.0Y-7.5
X165.0Y-75.0
X165.0Y-90.0
X165.0Y-160.0
X166.5Y-73.5
X167.0Y-81.0
X167.0Y-138.5
X167.235Y-59.5
X167.235Y-60.5
X167.5Y-7.5
X167.5Y-120.5
X168.0Y-84.0
X168.0Y-146.875
X168.0Y-150.0
X168.5Y-105.0
X168.5Y-110.5
X169.0Y-83.0
X169.5Y-78.0
X169.5Y-123.5
X170.0Y-7.5
X170.25Y-43.25
X170.5Y-109.5
X170.5Y-115.0
X171.0Y-59.0
X171.0Y-79.0
X171.5Y-118.0
X172.0Y-36.0
X172.0Y-83.0
X172.315Y-76.5
X172.5Y-7.5
X172.5Y-58.5
X172.5Y-128.0
X173.0Y-84.0
X173.0Y-146.875
X173.0Y-150.0
X173.242Y-52.0
X173.242Y-53.0
X173.242Y-54.0
X174.06Y-29.72
X175.0Y-7.5
X175.0Y-10.0
X175.0Y-12.5
X175.0Y-15.0
X175.0Y-17.5
X175.0Y-43.25
X175.5Y-72.5
X175.782Y-76.5
X176.0Y-94.0
X176.117Y-47.0
X177.0Y-58.5
X177.5Y-37.5
X177.5Y-82.0
X178.5Y-81.0
X179.242Y-48.0
X179.5Y-71.0
X180.0Y-55.0
X181.0Y-48.0
X181.0Y-51.0
X182.0Y-45.0
X183.0Y-58.0
X183.0Y-73.5
X183.117Y-51.0
X184.5Y-62.0
X184.5Y-74.5
X185.0Y-90.0
X185.0Y-100.0
X185.0Y-120.0
X185.0Y-140.0
X186.242Y-51.0
X187.5Y-45.0
X187.5Y-50.0
X188.0Y-54.0
X188.04Y-41.54
X188.18Y-60.4
X189.0Y-48.0
X189.5Y-56.5
X190.5Y-86.0
X190.5Y-108.5
X191.5Y-85.0
X192.0Y-145.25
X195.0Y-71.0
X195.0Y-90.0
X195.0Y-100.0
X195.5Y-75.5
X197.0Y-87.0
X197.0Y-148.472
X198.0Y-72.0
X198.0Y-81.0
X198.0Y-130.5
X199.0Y-80.0
X199.0Y-128.0
X199.0Y-141.0
X200.0Y-85.0
X200.0Y-123.072
X200.0Y-135.0
X200.908Y-86.0
X201.0Y-120.532
X202.0Y-87.0
X202.0Y-117.992
X202.0Y-139.0
X202.0Y-148.75
X202.75Y-145.75
X203.0Y-88.0
X203.0Y-115.0
X203.0Y-131.0
X204.0Y-89.0
X204.0Y-110.0
X204.5Y-113.5
X204.5Y-118.0
X205.0Y-7.5
X205.0Y-10.0
X205.0Y-12.5
X205.0Y-15.0
X205.0Y-17.5
X205.0Y-20.0
X205.0Y-22.5
X205.0Y-25.0
X205.0Y-27.5
X205.0Y-30.0
X205.0Y-32.5
X205.0Y-35.0
X205.0Y-37.5
X205.0Y-40.0
X205.0Y-42.5
X205.0Y-45.0
X205.0Y-47.5
X205.0Y-90.0
X205.0Y-107.0
X205.0Y-160.0
X205.5Y-73.5
X205.5Y-143.0
X206.0Y-91.0
X207.0Y-92.0
X207.115Y-59.5
X207.115Y-60.5
X207.5Y-7.5
X208.0Y-93.0
X208.0Y-134.0
X209.5Y-79.0
X209.5Y-83.0
X210.0Y-7.5
X210.25Y-42.75
X210.5Y-59.0
X211.0Y-78.0
X211.0Y-84.0
X212.0Y-59.0
X212.195Y-76.0
X212.5Y-7.5
X212.623Y-52.0
X212.623Y-53.0
X212.623Y-54.0
X213.5Y-35.5
X215.0Y-7.5
X215.0Y-42.75
X215.0Y-100.0
X215.5Y-72.5
X215.623Y-76.0
X216.44Y-29.67
X216.498Y-47.0
X217.0Y-58.5
X217.5Y-7.5
X217.5Y-10.0
X217.5Y-12.5
X217.5Y-15.0
X217.5Y-17.5
X217.5Y-40.0
X218.0Y-77.0
X218.0Y-80.0
X219.5Y-82.0
X219.623Y-48.0
X220.0Y-55.0
X220.0Y-71.0
X220.5Y-81.0
X222.5Y-47.5
X222.5Y-50.0
X222.5Y-52.5
X223.0Y-58.0
X223.5Y-143.5
X224.0Y-62.0
X224.0Y-71.5
X224.498Y-51.0
X224.5Y-75.5
X224.5Y-131.0
X225.0Y-83.454
X225.0Y-100.0
X227.5Y-120.0
X227.643Y-50.885
X228.06Y-60.35
X229.367Y-139.5
X229.5Y-128.0
X230.0Y-45.0
X230.0Y-47.5
X230.0Y-50.0
X230.0Y-52.5
X230.0Y-55.0
X230.455Y-41.455
X232.0Y-57.0
X233.0Y-101.0
X233.5Y-121.0
X233.511Y-113.511
X234.367Y-139.5
X234.5Y-128.0
X236.0Y-72.5
X236.0Y-77.0
X236.75Y-110.25
X237.0Y-89.0
X238.0Y-122.0
X239.0Y-72.0
X239.0Y-85.0
X239.367Y-139.5
X239.5Y-128.0
X240.0Y-86.0
X240.5Y-121.0
X241.0Y-87.0
X241.905Y-100.0
X242.0Y-120.0
X242.438Y-96.0
X242.952Y-101.047
X243.0Y-113.5
X244.367Y-139.5
X244.5Y-128.0
X245.0Y-7.5
X245.0Y-10.0
X245.0Y-12.5
X245.0Y-15.0
X245.0Y-17.5
X245.0Y-20.0
X245.0Y-22.5
X245.0Y-25.0
X245.0Y-27.5
X245.0Y-30.0
X245.0Y-32.5
X245.0Y-35.0
X245.0Y-37.5
X245.0Y-40.0
X245.0Y-42.5
X245.0Y-45.0
X245.5Y-122.0
X245.562Y-96.0
X245.562Y-100.0
X246.25Y-112.75
X246.5Y-119.5
X247.5Y-7.5
X248.0Y-73.0
X249.0Y-83.0
X249.495Y-59.5
X249.495Y-60.5
X250.0Y-7.5
X250.0Y-7.5
X250.0Y-100.0
X250.5Y-43.5
X252.0Y-78.0
X252.5Y-7.5
X253.0Y-59.0
X253.0Y-79.0
X254.5Y-36.0
X254.5Y-58.5
X254.502Y-52.0
X254.502Y-53.0
X254.551Y-54.449
X254.575Y-76.0
X255.0Y-7.5
X255.75Y-43.25
X256.32Y-29.72
X257.5Y-7.5
X257.5Y-10.0
X257.5Y-12.5
X257.5Y-15.0
X257.5Y-17.5
X257.5Y-72.5
X258.0Y-40.0
X258.042Y-76.0
X258.377Y-47.0
X259.0Y-58.5
X259.0Y-131.5
X259.0Y-143.5
X260.0Y-82.0
X260.0Y-100.0
X261.0Y-38.0
X261.0Y-81.0
X261.502Y-48.0
X262.0Y-55.0
X262.0Y-71.0
X263.0Y-53.0
X264.0Y-47.0
X264.0Y-50.0
X265.0Y-120.0
X265.0Y-133.0
X265.0Y-140.0
X265.5Y-58.0
X265.94Y-51.0
X266.5Y-62.0
X267.0Y-71.0
X267.0Y-76.0
X268.0Y-83.0
X268.0Y-102.0
X268.75Y-113.75
X269.0Y-51.0
X270.0Y-121.0
X270.0Y-133.0
X270.0Y-140.0
X270.44Y-60.4
X270.5Y-42.5
X271.0Y-45.0
X271.0Y-51.0
X271.0Y-54.0
X271.75Y-110.25
X272.0Y-47.0
X272.0Y-56.0
X272.0Y-90.0
X274.0Y-85.0
X274.5Y-121.0
X275.0Y-86.0
X275.0Y-133.0
X275.0Y-140.0
X275.5Y-120.0
X276.0Y-87.0
X276.805Y-95.5
X276.902Y-100.097
X277.902Y-101.097
X278.0Y-72.0
X278.0Y-77.0
X278.175Y-113.5
X279.0Y-83.0
X279.93Y-95.5
X279.93Y-100.0
X280.0Y-133.0
X280.0Y-140.0
X281.25Y-119.25
X281.5Y-112.5
X285.0Y-100.0
X290.0Y-75.0
X290.0Y-80.0
X295.0Y-100.0
X295.0Y-131.5
X295.5Y-144.0
X300.0Y-80.0
X301.368Y-139.5
X301.5Y-132.5
X303.0Y-49.0
X303.0Y-61.0
X305.0Y-102.0
X305.5Y-114.0
X306.368Y-139.5
X306.5Y-132.5
X308.0Y-94.0
X308.25Y-110.25
X310.0Y-81.0
X310.0Y-85.0
X311.0Y-86.0
X311.368Y-139.5
X311.5Y-132.5
X312.5Y-87.0
X313.0Y-49.0
X313.0Y-61.0
X313.272Y-101.0
X314.0Y-100.0
X314.438Y-95.0
X314.5Y-113.5
X316.25Y-112.25
X316.368Y-139.5
X316.5Y-119.5
X316.5Y-132.5
X317.562Y-95.0
X317.562Y-100.0
X322.0Y-71.0
X322.0Y-83.0
X323.0Y-49.0
X323.0Y-60.55
X323.438Y-88.75
X324.0Y-84.0
X325.0Y-100.0
X325.562Y-70.5
X326.562Y-89.0
X328.0Y-65.0
X328.365Y-70.365
X328.5Y-87.0
X329.0Y-62.0
X329.5Y-69.5
X330.0Y-86.0
X330.0Y-100.0
X330.0Y-110.0
X330.5Y-68.5
X331.0Y-85.0
X332.0Y-88.0
X332.175Y-71.0
X333.0Y-49.0
X333.0Y-61.0
X333.445Y-71.117
X335.0Y-85.0
X336.0Y-92.0
X336.0Y-110.5
X337.0Y-91.0
X337.0Y-109.5
X339.0Y-65.5
X339.5Y-113.438
X340.0Y-100.0
X340.0Y-105.0
X340.0Y-116.562
X340.5Y-82.0
X340.5Y-93.0
X344.0Y-88.5
X344.0Y-93.5
X344.0Y-113.5
X344.0Y-116.562
X348.0Y-113.438
X348.5Y-117.0
X349.0Y-116.0
X350.0Y-105.0
X350.5Y-112.5
X353.5Y-60.5
X354.0Y-58.5
X354.0Y-115.0
X354.5Y-93.0
X354.92Y-106.042
X355.0Y-65.0
X355.0Y-89.0
X355.5Y-61.025
X355.5Y-113.5
X356.0Y-81.0
X357.0Y-117.0
X358.5Y-117.0
X364.0Y-61.562
X368.5Y-61.562
X370.0Y-65.0
X370.0Y-90.0
X370.0Y-100.0
X370.0Y-110.0
X372.05Y-77.95
T2
X29.7Y-122.5
X29.7Y-127.5
X29.7Y-132.5
X29.7Y-137.5
X44.0Y-156.35
X53.0Y-156.35
X62.0Y-156.35
X71.0Y-156.35
X80.0Y-156.35
X81.9Y-101.04
X81.9Y-108.54
X83.0Y-146.35
X87.65Y-125.0
X87.65Y-134.0
X109.0Y-109.0
X109.0Y-118.0
T3
X29.45Y-108.0
X34.55Y-108.0
T4
X97.0Y-116.76
X97.0Y-119.3
X97.0Y-121.84
X97.0Y-129.46
X97.0Y-132.0
X97.0Y-134.54
T5
X142.5Y-109.795
X142.5Y-114.675
T6
X54.38Y-26.962
X56.0Y-92.915
X56.0Y-95.455
X56.92Y-26.962
X59.46Y-26.962
X62.0Y-26.962
X64.54Y-26.962
X91.84Y-26.912
X94.38Y-26.912
X96.92Y-26.912
X99.46Y-26.912
X102.0Y-26.912
X134.18Y-26.962
X136.72Y-26.962
X139.26Y-26.962
X141.8Y-26.962
X143.5Y-140.175
X144.34Y-26.962
X146.04Y-140.175
X174.06Y-27.012
X176.11Y-107.832
X176.11Y-110.372
X176.11Y-112.912
X176.11Y-115.453
X176.11Y-117.992
X176.11Y-120.532
X176.11Y-123.072
X176.11Y-125.612
X176.11Y-128.153
X176.11Y-130.692
X176.11Y-133.232
X176.11Y-135.773
X176.11Y-138.312
X176.11Y-140.852
X176.11Y-143.392
X176.11Y-145.933
X176.11Y-148.472
X176.11Y-151.012
X176.11Y-153.552
X176.11Y-156.093
X176.6Y-27.012
X179.14Y-27.012
X181.68Y-27.012
X184.22Y-27.012
X193.89Y-107.832
X193.89Y-110.372
X193.89Y-112.912
X193.89Y-115.453
X193.89Y-117.992
X193.89Y-120.532
X193.89Y-123.072
X193.89Y-125.612
X193.89Y-128.153
X193.89Y-130.692
X193.89Y-133.232
X193.89Y-135.773
X193.89Y-138.312
X193.89Y-140.852
X193.89Y-143.392
X193.89Y-145.933
X193.89Y-148.472
X193.89Y-151.012
X193.89Y-153.552
X193.89Y-156.093
X202.5Y-151.963
X202.5Y-154.502
X216.44Y-26.962
X218.98Y-26.962
X221.52Y-26.962
X224.06Y-26.962
X226.6Y-26.962
X256.32Y-27.012
X258.86Y-27.012
X261.4Y-27.012
X263.94Y-27.012
X266.48Y-27.012
X333.0Y-125.59
X337.46Y-143.335
X340.0Y-143.335
X345.0Y-125.59
X352.0Y-125.59
X353.085Y-51.15
X355.0Y-32.5
X357.46Y-143.335
X357.54Y-32.5
X360.0Y-143.335
X364.0Y-125.59
X365.085Y-51.15
T7
X121.915Y-117.175
X121.915Y-119.715
X121.915Y-127.335
X121.915Y-132.415
X228.0Y-98.515
X228.0Y-101.055
X228.0Y-108.675
X228.0Y-113.755
X262.915Y-98.515
X262.915Y-101.055
X262.915Y-108.675
X262.915Y-113.755
X299.282Y-98.515
X299.282Y-101.055
X299.282Y-108.675
X299.282Y-113.755
X344.76Y-104.0
X347.3Y-104.0
X351.887Y-70.0
X354.428Y-70.0
X354.92Y-104.0
X360.0Y-104.0
X362.047Y-70.0
X367.127Y-70.0
T8
X53.92Y-150.72
X56.46Y-105.0
X61.54Y-105.0
X64.08Y-150.72
X71.7Y-105.0
X74.24Y-150.72
T9
X45.45Y-91.855
X45.45Y-96.855
X93.5Y-146.5
X98.5Y-146.5
X118.42Y-152.675
X123.5Y-152.675
X128.58Y-152.675
X138.42Y-152.675
X143.5Y-152.675
X148.58Y-152.675
X333.0Y-137.79
X339.0Y-123.59
X345.0Y-137.79
X352.0Y-137.79
X353.085Y-38.95
X358.0Y-123.59
X359.085Y-53.15
X364.0Y-137.79
X365.085Y-38.95
T10
X224.475Y-149.356
X228.285Y-149.356
X232.095Y-149.356
X235.905Y-149.356
X239.715Y-149.356
X243.525Y-149.356
X260.475Y-149.356
X264.285Y-149.356
X268.095Y-149.356
X271.905Y-149.356
X275.715Y-149.356
X279.525Y-149.356
X296.558Y-149.786
X300.368Y-149.786
X304.178Y-149.786
X307.988Y-149.786
X311.798Y-149.786
X315.607Y-149.786
T11
X333.095Y-147.285
X336.905Y-147.285
X353.095Y-147.285
X354.45Y-23.095
X354.45Y-26.905
X356.905Y-147.285
T12
X165.0Y-96.962
X165.0Y-104.5
X165.0Y-109.462
X165.0Y-114.5
X165.0Y-119.462
X165.0Y-124.5
X165.0Y-129.463
X203.0Y-134.0
X206.0Y-146.0
X207.5Y-113.5
X207.5Y-118.5
X207.5Y-123.5
X208.0Y-129.0
X208.0Y-139.0
X209.0Y-105.0
X223.0Y-119.675
X227.5Y-124.675
X233.5Y-124.675
X239.5Y-124.675
X245.5Y-124.675
X259.0Y-119.675
X265.0Y-123.675
X270.0Y-123.675
X275.0Y-123.675
X280.0Y-123.675
X285.0Y-72.5
X285.0Y-77.5
X285.0Y-82.5
X292.5Y-77.5
X295.0Y-120.0
X301.368Y-123.286
X303.0Y-64.0
X306.368Y-123.286
X311.25Y-123.25
X313.0Y-64.0
X316.368Y-123.286
X323.0Y-64.0
X333.0Y-64.0
X339.0Y-50.0
T13
X297.6Y-20.35
X302.68Y-20.35
X307.76Y-20.35
X312.84Y-20.35
X317.92Y-20.35
X323.0Y-20.35
X328.08Y-20.35
X333.16Y-20.35
T14
X49.38Y-20.35
X54.46Y-20.35
X59.54Y-20.35
X64.62Y-20.35
X89.3Y-20.3
X94.38Y-20.3
X99.46Y-20.3
X104.54Y-20.3
X129.18Y-20.35
X134.26Y-20.35
X139.34Y-20.35
X144.42Y-20.35
X169.06Y-20.4
X174.14Y-20.4
X179.22Y-20.4
X184.3Y-20.4
X211.44Y-20.35
X216.52Y-20.35
X221.6Y-20.35
X226.68Y-20.35
X251.32Y-20.4
X256.4Y-20.4
X261.48Y-20.4
X266.56Y-20.4
T15
X32.5Y-12.5
X32.5Y-157.5
X367.5Y-12.5
X367.5Y-157.5
M30
