%TF.GenerationSoftware,KiCad,Pcbnew,9.0.1*%
%TF.CreationDate,2025-12-19T01:31:41-08:00*%
%TF.ProjectId,ControlBoard,436f6e74-726f-46c4-926f-6172642e6b69,rev?*%
%TF.SameCoordinates,Original*%
%TF.FileFunction,Soldermask,Bot*%
%TF.FilePolarity,Negative*%
%FSLAX46Y46*%
G04 Gerber Fmt 4.6, Leading zero omitted, Abs format (unit mm)*
G04 Created by KiCad (PCBNEW 9.0.1) date 2025-12-19 01:31:41*
%MOMM*%
%LPD*%
G01*
G04 APERTURE LIST*
G04 Aperture macros list*
%AMRoundRect*
0 Rectangle with rounded corners*
0 $1 Rounding radius*
0 $2 $3 $4 $5 $6 $7 $8 $9 X,Y pos of 4 corners*
0 Add a 4 corners polygon primitive as box body*
4,1,4,$2,$3,$4,$5,$6,$7,$8,$9,$2,$3,0*
0 Add four circle primitives for the rounded corners*
1,1,$1+$1,$2,$3*
1,1,$1+$1,$4,$5*
1,1,$1+$1,$6,$7*
1,1,$1+$1,$8,$9*
0 Add four rect primitives between the rounded corners*
20,1,$1+$1,$2,$3,$4,$5,0*
20,1,$1+$1,$4,$5,$6,$7,0*
20,1,$1+$1,$6,$7,$8,$9,0*
20,1,$1+$1,$8,$9,$2,$3,0*%
%AMFreePoly0*
4,1,37,0.603843,0.796157,0.639018,0.796157,0.711114,0.766294,0.766294,0.711114,0.796157,0.639018,0.796157,0.603843,0.800000,0.600000,0.800000,-0.600000,0.796157,-0.603843,0.796157,-0.639018,0.766294,-0.711114,0.711114,-0.766294,0.639018,-0.796157,0.603843,-0.796157,0.600000,-0.800000,0.000000,-0.800000,0.000000,-0.796148,-0.078414,-0.796148,-0.232228,-0.765552,-0.377117,-0.705537,
-0.507515,-0.618408,-0.618408,-0.507515,-0.705537,-0.377117,-0.765552,-0.232228,-0.796148,-0.078414,-0.796148,0.078414,-0.765552,0.232228,-0.705537,0.377117,-0.618408,0.507515,-0.507515,0.618408,-0.377117,0.705537,-0.232228,0.765552,-0.078414,0.796148,0.000000,0.796148,0.000000,0.800000,0.600000,0.800000,0.603843,0.796157,0.603843,0.796157,$1*%
%AMFreePoly1*
4,1,37,0.000000,0.796148,0.078414,0.796148,0.232228,0.765552,0.377117,0.705537,0.507515,0.618408,0.618408,0.507515,0.705537,0.377117,0.765552,0.232228,0.796148,0.078414,0.796148,-0.078414,0.765552,-0.232228,0.705537,-0.377117,0.618408,-0.507515,0.507515,-0.618408,0.377117,-0.705537,0.232228,-0.765552,0.078414,-0.796148,0.000000,-0.796148,0.000000,-0.800000,-0.600000,-0.800000,
-0.603843,-0.796157,-0.639018,-0.796157,-0.711114,-0.766294,-0.766294,-0.711114,-0.796157,-0.639018,-0.796157,-0.603843,-0.800000,-0.600000,-0.800000,0.600000,-0.796157,0.603843,-0.796157,0.639018,-0.766294,0.711114,-0.711114,0.766294,-0.639018,0.796157,-0.603843,0.796157,-0.600000,0.800000,0.000000,0.800000,0.000000,0.796148,0.000000,0.796148,$1*%
G04 Aperture macros list end*
%ADD10R,3.500000X1.850000*%
%ADD11RoundRect,0.250000X0.412500X1.100000X-0.412500X1.100000X-0.412500X-1.100000X0.412500X-1.100000X0*%
%ADD12C,3.000000*%
%ADD13RoundRect,0.250000X1.100000X-0.412500X1.100000X0.412500X-1.100000X0.412500X-1.100000X-0.412500X0*%
%ADD14C,2.200000*%
%ADD15C,1.850000*%
%ADD16RoundRect,0.200000X0.600000X0.600000X-0.600000X0.600000X-0.600000X-0.600000X0.600000X-0.600000X0*%
%ADD17C,1.600000*%
%ADD18FreePoly0,180.000000*%
%ADD19FreePoly1,180.000000*%
%ADD20C,2.550000*%
%ADD21RoundRect,0.250000X-1.075000X0.400000X-1.075000X-0.400000X1.075000X-0.400000X1.075000X0.400000X0*%
%ADD22R,1.700000X1.700000*%
%ADD23C,1.700000*%
%ADD24R,2.300000X1.000000*%
%ADD25RoundRect,0.250000X1.075000X-0.400000X1.075000X0.400000X-1.075000X0.400000X-1.075000X-0.400000X0*%
%ADD26RoundRect,0.250000X-0.400000X-1.075000X0.400000X-1.075000X0.400000X1.075000X-0.400000X1.075000X0*%
%ADD27RoundRect,0.250000X-0.412500X-1.100000X0.412500X-1.100000X0.412500X1.100000X-0.412500X1.100000X0*%
%ADD28C,1.500000*%
%ADD29R,1.950000X1.950000*%
%ADD30C,1.950000*%
%ADD31R,2.025000X2.025000*%
%ADD32C,2.025000*%
%ADD33C,2.100000*%
%ADD34C,1.725000*%
%ADD35C,1.217000*%
%ADD36R,1.500000X1.500000*%
%ADD37R,1.800000X1.800000*%
%ADD38C,1.800000*%
%ADD39C,9.500000*%
%ADD40R,2.400000X2.400000*%
%ADD41C,2.400000*%
%ADD42R,1.303000X1.303000*%
%ADD43C,1.303000*%
%ADD44RoundRect,0.250000X-1.100000X0.412500X-1.100000X-0.412500X1.100000X-0.412500X1.100000X0.412500X0*%
%ADD45RoundRect,0.250000X0.400000X1.075000X-0.400000X1.075000X-0.400000X-1.075000X0.400000X-1.075000X0*%
%ADD46R,1.850000X3.500000*%
%ADD47R,3.200000X2.250000*%
G04 APERTURE END LIST*
D10*
%TO.C,C175*%
X162000000Y-73000000D03*
X156700000Y-73000000D03*
%TD*%
%TO.C,C176*%
X270000000Y-75000000D03*
X275300000Y-75000000D03*
%TD*%
%TO.C,C167*%
X103500000Y-118000000D03*
X108800000Y-118000000D03*
%TD*%
%TO.C,C164*%
X82350000Y-125000000D03*
X87650000Y-125000000D03*
%TD*%
%TO.C,C165*%
X82350000Y-134000000D03*
X87650000Y-134000000D03*
%TD*%
%TO.C,C166*%
X103850000Y-109000000D03*
X109150000Y-109000000D03*
%TD*%
D11*
%TO.C,C44*%
X93817500Y-51300000D03*
X96942500Y-51300000D03*
%TD*%
D10*
%TO.C,C163*%
X354850000Y-95500000D03*
X360150000Y-95500000D03*
%TD*%
%TO.C,C162*%
X344350000Y-95500000D03*
X349650000Y-95500000D03*
%TD*%
%TO.C,C161*%
X354850000Y-86000000D03*
X360150000Y-86000000D03*
%TD*%
%TO.C,C160*%
X344350000Y-86000000D03*
X349650000Y-86000000D03*
%TD*%
D12*
%TO.C,TP9*%
X239500000Y-124675000D03*
%TD*%
%TO.C,TP7*%
X227500000Y-124675000D03*
%TD*%
D13*
%TO.C,C112*%
X229367500Y-134723750D03*
X229367500Y-137848750D03*
%TD*%
%TO.C,C114*%
X239500000Y-134723750D03*
X239500000Y-137848750D03*
%TD*%
D12*
%TO.C,TP39*%
X292500000Y-77500000D03*
%TD*%
%TO.C,TP38*%
X285000000Y-72500000D03*
%TD*%
%TO.C,TP37*%
X285000000Y-77500000D03*
%TD*%
%TO.C,TP36*%
X285000000Y-82500000D03*
%TD*%
D14*
%TO.C,A1*%
X187725000Y-155962500D03*
D15*
X187425000Y-152932500D03*
X182575000Y-152932500D03*
D14*
X182275000Y-155962500D03*
D16*
X193890000Y-156092500D03*
D17*
X193890000Y-153552500D03*
D18*
X193890000Y-151012500D03*
D17*
X193890000Y-148472500D03*
X193890000Y-145932500D03*
X193890000Y-143392500D03*
X193890000Y-140852500D03*
D18*
X193890000Y-138312500D03*
D17*
X193890000Y-135772500D03*
X193890000Y-133232500D03*
X193890000Y-130692500D03*
X193890000Y-128152500D03*
D18*
X193890000Y-125612500D03*
D17*
X193890000Y-123072500D03*
X193890000Y-120532500D03*
X193890000Y-117992500D03*
X193890000Y-115452500D03*
D18*
X193890000Y-112912500D03*
D17*
X193890000Y-110372500D03*
X193890000Y-107832500D03*
X176110000Y-107832500D03*
X176110000Y-110372500D03*
D19*
X176110000Y-112912500D03*
D17*
X176110000Y-115452500D03*
X176110000Y-117992500D03*
X176110000Y-120532500D03*
X176110000Y-123072500D03*
D19*
X176110000Y-125612500D03*
D17*
X176110000Y-128152500D03*
X176110000Y-130692500D03*
X176110000Y-133232500D03*
X176110000Y-135772500D03*
D19*
X176110000Y-138312500D03*
D17*
X176110000Y-140852500D03*
X176110000Y-143392500D03*
X176110000Y-145932500D03*
X176110000Y-148472500D03*
D19*
X176110000Y-151012500D03*
D17*
X176110000Y-153552500D03*
X176110000Y-156092500D03*
%TD*%
D20*
%TO.C,J20*%
X251320000Y-20400000D03*
X256400000Y-20400000D03*
X261480000Y-20400000D03*
X266560000Y-20400000D03*
%TD*%
D21*
%TO.C,R59*%
X255463250Y-38850000D03*
X255463250Y-41950000D03*
%TD*%
D11*
%TO.C,C91*%
X269065000Y-48400000D03*
X265940000Y-48400000D03*
%TD*%
%TO.C,C92*%
X261502500Y-51400000D03*
X258377500Y-51400000D03*
%TD*%
D22*
%TO.C,J17*%
X256320000Y-27012500D03*
D23*
X258860000Y-27012500D03*
X261400000Y-27012500D03*
X263940000Y-27012500D03*
X266480000Y-27012500D03*
%TD*%
D24*
%TO.C,PS11*%
X249495000Y-74866000D03*
X249495000Y-61406000D03*
X249495000Y-58866000D03*
X263465000Y-58866000D03*
X263465000Y-61406000D03*
X263465000Y-72326000D03*
X263465000Y-74866000D03*
%TD*%
D25*
%TO.C,R64*%
X271440000Y-60400000D03*
X271440000Y-57300000D03*
%TD*%
D26*
%TO.C,R60*%
X265840000Y-40400000D03*
X268940000Y-40400000D03*
%TD*%
D21*
%TO.C,R62*%
X258940000Y-32900000D03*
X258940000Y-36000000D03*
%TD*%
D11*
%TO.C,C96*%
X269067500Y-53400000D03*
X265942500Y-53400000D03*
%TD*%
D21*
%TO.C,R58*%
X251253250Y-38850000D03*
X251253250Y-41950000D03*
%TD*%
D27*
%TO.C,C93*%
X258377500Y-45400000D03*
X261502500Y-45400000D03*
%TD*%
D20*
%TO.C,J14*%
X226680000Y-20350000D03*
X221600000Y-20350000D03*
X216520000Y-20350000D03*
X211440000Y-20350000D03*
%TD*%
D21*
%TO.C,R68*%
X209826750Y-40950000D03*
X209826750Y-37850000D03*
%TD*%
D24*
%TO.C,PS12*%
X221085000Y-74816000D03*
X221085000Y-72276000D03*
X221085000Y-61356000D03*
X221085000Y-58816000D03*
X207115000Y-58816000D03*
X207115000Y-61356000D03*
X207115000Y-74816000D03*
%TD*%
D11*
%TO.C,C102*%
X224497500Y-53350000D03*
X227622500Y-53350000D03*
%TD*%
D21*
%TO.C,R69*%
X214036750Y-40950000D03*
X214036750Y-37850000D03*
%TD*%
D11*
%TO.C,C107*%
X224497500Y-48350000D03*
X227622500Y-48350000D03*
%TD*%
D21*
%TO.C,R72*%
X219060000Y-35350000D03*
X219060000Y-32250000D03*
%TD*%
D26*
%TO.C,R70*%
X229060000Y-40350000D03*
X225960000Y-40350000D03*
%TD*%
D23*
%TO.C,J9*%
X226600000Y-26962500D03*
X224060000Y-26962500D03*
X221520000Y-26962500D03*
X218980000Y-26962500D03*
D22*
X216440000Y-26962500D03*
%TD*%
D11*
%TO.C,C103*%
X216497500Y-51350000D03*
X219622500Y-51350000D03*
%TD*%
D27*
%TO.C,C104*%
X219622500Y-45350000D03*
X216497500Y-45350000D03*
%TD*%
D25*
%TO.C,R74*%
X229060000Y-57850000D03*
X229060000Y-60950000D03*
%TD*%
D20*
%TO.C,J19*%
X169060000Y-20400000D03*
X174140000Y-20400000D03*
X179220000Y-20400000D03*
X184300000Y-20400000D03*
%TD*%
D21*
%TO.C,R38*%
X169970000Y-38850000D03*
X169970000Y-41950000D03*
%TD*%
%TO.C,R39*%
X174180000Y-38850000D03*
X174180000Y-41950000D03*
%TD*%
D11*
%TO.C,C70*%
X179242500Y-51400000D03*
X176117500Y-51400000D03*
%TD*%
D26*
%TO.C,R40*%
X183580000Y-40400000D03*
X186680000Y-40400000D03*
%TD*%
D25*
%TO.C,R44*%
X189180000Y-61000000D03*
X189180000Y-57900000D03*
%TD*%
D27*
%TO.C,C71*%
X176117500Y-45400000D03*
X179242500Y-45400000D03*
%TD*%
D22*
%TO.C,J16*%
X174060000Y-27012500D03*
D23*
X176600000Y-27012500D03*
X179140000Y-27012500D03*
X181680000Y-27012500D03*
X184220000Y-27012500D03*
%TD*%
D11*
%TO.C,C72*%
X186242500Y-53400000D03*
X183117500Y-53400000D03*
%TD*%
%TO.C,C69*%
X186242500Y-48400000D03*
X183117500Y-48400000D03*
%TD*%
D24*
%TO.C,PS9*%
X167235000Y-74866000D03*
X167235000Y-61406000D03*
X167235000Y-58866000D03*
X181205000Y-58866000D03*
X181205000Y-61406000D03*
X181205000Y-72326000D03*
X181205000Y-74866000D03*
%TD*%
D21*
%TO.C,R42*%
X176680000Y-32900000D03*
X176680000Y-36000000D03*
%TD*%
D20*
%TO.C,J13*%
X129180000Y-20350000D03*
X134260000Y-20350000D03*
X139340000Y-20350000D03*
X144420000Y-20350000D03*
%TD*%
D24*
%TO.C,PS10*%
X124855000Y-74816000D03*
X124855000Y-61356000D03*
X124855000Y-58816000D03*
X138825000Y-58816000D03*
X138825000Y-61356000D03*
X138825000Y-72276000D03*
X138825000Y-74816000D03*
%TD*%
D26*
%TO.C,R50*%
X143700000Y-40350000D03*
X146800000Y-40350000D03*
%TD*%
D11*
%TO.C,C80*%
X145362500Y-48350000D03*
X142237500Y-48350000D03*
%TD*%
D27*
%TO.C,C82*%
X133675000Y-45350000D03*
X136800000Y-45350000D03*
%TD*%
D21*
%TO.C,R52*%
X136800000Y-31300000D03*
X136800000Y-34400000D03*
%TD*%
D25*
%TO.C,R54*%
X146800000Y-60350000D03*
X146800000Y-57250000D03*
%TD*%
D21*
%TO.C,R49*%
X131776750Y-37850000D03*
X131776750Y-40950000D03*
%TD*%
D11*
%TO.C,C81*%
X136925000Y-51350000D03*
X133800000Y-51350000D03*
%TD*%
D21*
%TO.C,R48*%
X127566750Y-37850000D03*
X127566750Y-40950000D03*
%TD*%
D22*
%TO.C,J8*%
X134180000Y-26962500D03*
D23*
X136720000Y-26962500D03*
X139260000Y-26962500D03*
X141800000Y-26962500D03*
X144340000Y-26962500D03*
%TD*%
D11*
%TO.C,C85*%
X145362500Y-53350000D03*
X142237500Y-53350000D03*
%TD*%
D20*
%TO.C,J18*%
X104540000Y-20300000D03*
X99460000Y-20300000D03*
X94380000Y-20300000D03*
X89300000Y-20300000D03*
%TD*%
D21*
%TO.C,R16*%
X87710000Y-37800000D03*
X87710000Y-40900000D03*
%TD*%
D26*
%TO.C,R18*%
X101320000Y-40300000D03*
X104420000Y-40300000D03*
%TD*%
D11*
%TO.C,C48*%
X104942500Y-53300000D03*
X101817500Y-53300000D03*
%TD*%
D25*
%TO.C,R22*%
X106880000Y-60900000D03*
X106880000Y-57800000D03*
%TD*%
D27*
%TO.C,C45*%
X93817500Y-45300000D03*
X96942500Y-45300000D03*
%TD*%
D21*
%TO.C,R20*%
X94420000Y-32200000D03*
X94420000Y-35300000D03*
%TD*%
%TO.C,R17*%
X91920000Y-37800000D03*
X91920000Y-40900000D03*
%TD*%
D22*
%TO.C,J15*%
X91840000Y-26912500D03*
D23*
X94380000Y-26912500D03*
X96920000Y-26912500D03*
X99460000Y-26912500D03*
X102000000Y-26912500D03*
%TD*%
D24*
%TO.C,PS5*%
X84975000Y-74766000D03*
X84975000Y-61306000D03*
X84975000Y-58766000D03*
X98945000Y-58766000D03*
X98945000Y-61306000D03*
X98945000Y-72226000D03*
X98945000Y-74766000D03*
%TD*%
D11*
%TO.C,C43*%
X104942500Y-48300000D03*
X101817500Y-48300000D03*
%TD*%
D28*
%TO.C,Y1*%
X142500000Y-109795000D03*
X142500000Y-114675000D03*
%TD*%
D12*
%TO.C,TP26*%
X203000000Y-134000000D03*
%TD*%
%TO.C,TP14*%
X316367500Y-123286250D03*
%TD*%
%TO.C,TP32*%
X165000000Y-114500000D03*
%TD*%
D29*
%TO.C,J22*%
X45450000Y-96855000D03*
D30*
X45450000Y-91855000D03*
%TD*%
D29*
%TO.C,J27*%
X98500000Y-146500000D03*
D30*
X93500000Y-146500000D03*
%TD*%
D31*
%TO.C,J24*%
X243525000Y-149356250D03*
D32*
X239715000Y-149356250D03*
X235905000Y-149356250D03*
X232095000Y-149356250D03*
X228285000Y-149356250D03*
X224475000Y-149356250D03*
%TD*%
D12*
%TO.C,TP31*%
X165000000Y-109462500D03*
%TD*%
%TO.C,TP4*%
X303000000Y-64000000D03*
%TD*%
D33*
%TO.C,J6*%
X336905000Y-147285000D03*
X333095000Y-147285000D03*
%TD*%
D12*
%TO.C,TP22*%
X207500000Y-118500000D03*
%TD*%
%TO.C,TP30*%
X165000000Y-104500000D03*
%TD*%
%TO.C,TP20*%
X301367500Y-123286250D03*
%TD*%
D34*
%TO.C,PS1*%
X228000000Y-98515000D03*
X228000000Y-101055000D03*
X228000000Y-108675000D03*
X228000000Y-113755000D03*
%TD*%
D12*
%TO.C,TP21*%
X207500000Y-123500000D03*
%TD*%
D35*
%TO.C,F1*%
X34550000Y-108000000D03*
X29450000Y-108000000D03*
%TD*%
D36*
%TO.C,K1*%
X333000000Y-125590000D03*
D30*
X333000000Y-137790000D03*
X345000000Y-137790000D03*
D28*
X345000000Y-125590000D03*
D30*
X339000000Y-123590000D03*
%TD*%
D12*
%TO.C,TP8*%
X233500000Y-124675000D03*
%TD*%
D22*
%TO.C,JP1*%
X143500000Y-140175000D03*
D23*
X146040000Y-140175000D03*
%TD*%
D12*
%TO.C,TP33*%
X165000000Y-119462500D03*
%TD*%
D34*
%TO.C,PS13*%
X351887500Y-70000000D03*
X354427500Y-70000000D03*
X362047500Y-70000000D03*
X367127500Y-70000000D03*
%TD*%
D12*
%TO.C,TP24*%
X209000000Y-105000000D03*
%TD*%
D37*
%TO.C,PS7*%
X56460000Y-105000000D03*
D38*
X61540000Y-105000000D03*
X71700000Y-105000000D03*
X53920000Y-150720000D03*
X64080000Y-150720000D03*
X74240000Y-150720000D03*
%TD*%
D12*
%TO.C,TP18*%
X306367500Y-123286250D03*
%TD*%
D34*
%TO.C,PS14*%
X344760000Y-104000000D03*
X347300000Y-104000000D03*
X354920000Y-104000000D03*
X360000000Y-104000000D03*
%TD*%
%TO.C,PS4*%
X121915000Y-117175000D03*
X121915000Y-119715000D03*
X121915000Y-127335000D03*
X121915000Y-132415000D03*
%TD*%
D12*
%TO.C,TP35*%
X165000000Y-129462500D03*
%TD*%
%TO.C,TP3*%
X333000000Y-64000000D03*
%TD*%
%TO.C,TP6*%
X313000000Y-64000000D03*
%TD*%
D33*
%TO.C,J4*%
X356905000Y-147285000D03*
X353095000Y-147285000D03*
%TD*%
D12*
%TO.C,TP17*%
X270000000Y-123675000D03*
%TD*%
D36*
%TO.C,K2*%
X352000000Y-125590000D03*
D30*
X352000000Y-137790000D03*
X364000000Y-137790000D03*
D28*
X364000000Y-125590000D03*
D30*
X358000000Y-123590000D03*
%TD*%
D12*
%TO.C,TP23*%
X207500000Y-113500000D03*
%TD*%
%TO.C,TP15*%
X265000000Y-123675000D03*
%TD*%
D33*
%TO.C,J5*%
X354450000Y-23095000D03*
X354450000Y-26905000D03*
%TD*%
D39*
%TO.C,H3*%
X32500000Y-157500000D03*
%TD*%
D12*
%TO.C,TP16*%
X311250000Y-123250000D03*
%TD*%
%TO.C,TP19*%
X275000000Y-123675000D03*
%TD*%
%TO.C,TP2*%
X223000000Y-119675000D03*
%TD*%
D39*
%TO.C,H1*%
X32500000Y-12500000D03*
%TD*%
%TO.C,H4*%
X367500000Y-157500000D03*
%TD*%
D12*
%TO.C,TP10*%
X245500000Y-124675000D03*
%TD*%
%TO.C,TP11*%
X259000000Y-119675000D03*
%TD*%
%TO.C,TP28*%
X206000000Y-146000000D03*
%TD*%
D39*
%TO.C,H2*%
X367500000Y-12500000D03*
%TD*%
D12*
%TO.C,TP25*%
X208000000Y-139000000D03*
%TD*%
D29*
%TO.C,J10*%
X118420000Y-152675000D03*
D30*
X123500000Y-152675000D03*
X128580000Y-152675000D03*
%TD*%
D12*
%TO.C,TP29*%
X165000000Y-96962500D03*
%TD*%
D40*
%TO.C,J25*%
X297600000Y-20350000D03*
D41*
X302680000Y-20350000D03*
X307760000Y-20350000D03*
X312840000Y-20350000D03*
X317920000Y-20350000D03*
X323000000Y-20350000D03*
X328080000Y-20350000D03*
X333160000Y-20350000D03*
%TD*%
D12*
%TO.C,TP12*%
X295000000Y-120000000D03*
%TD*%
%TO.C,TP13*%
X280000000Y-123675000D03*
%TD*%
D31*
%TO.C,J26*%
X279525000Y-149356250D03*
D32*
X275715000Y-149356250D03*
X271905000Y-149356250D03*
X268095000Y-149356250D03*
X264285000Y-149356250D03*
X260475000Y-149356250D03*
%TD*%
D12*
%TO.C,TP5*%
X323000000Y-64000000D03*
%TD*%
%TO.C,TP34*%
X165000000Y-124500000D03*
%TD*%
D34*
%TO.C,PS2*%
X262915000Y-98515000D03*
X262915000Y-101055000D03*
X262915000Y-108675000D03*
X262915000Y-113755000D03*
%TD*%
D36*
%TO.C,K3*%
X365085000Y-51150000D03*
D30*
X365085000Y-38950000D03*
X353085000Y-38950000D03*
D28*
X353085000Y-51150000D03*
D30*
X359085000Y-53150000D03*
%TD*%
D29*
%TO.C,J11*%
X138420000Y-152675000D03*
D30*
X143500000Y-152675000D03*
X148580000Y-152675000D03*
%TD*%
D12*
%TO.C,TP1*%
X339000000Y-50000000D03*
%TD*%
%TO.C,TP27*%
X208000000Y-129000000D03*
%TD*%
D34*
%TO.C,PS3*%
X299282500Y-98515000D03*
X299282500Y-101055000D03*
X299282500Y-108675000D03*
X299282500Y-113755000D03*
%TD*%
D31*
%TO.C,J28*%
X315607500Y-149786250D03*
D32*
X311797500Y-149786250D03*
X307987500Y-149786250D03*
X304177500Y-149786250D03*
X300367500Y-149786250D03*
X296557500Y-149786250D03*
%TD*%
D22*
%TO.C,J29*%
X202500000Y-154502500D03*
D23*
X202500000Y-151962500D03*
%TD*%
D42*
%TO.C,PS6*%
X97000000Y-116760000D03*
D43*
X97000000Y-119300000D03*
X97000000Y-121840000D03*
X97000000Y-129460000D03*
X97000000Y-132000000D03*
X97000000Y-134540000D03*
%TD*%
D11*
%TO.C,C36*%
X135062500Y-147675000D03*
X131937500Y-147675000D03*
%TD*%
D13*
%TO.C,C118*%
X306367500Y-138237500D03*
X306367500Y-135112500D03*
%TD*%
D27*
%TO.C,C24*%
X304805000Y-116286250D03*
X307930000Y-116286250D03*
%TD*%
%TO.C,C8*%
X233437500Y-115755000D03*
X236562500Y-115755000D03*
%TD*%
D22*
%TO.C,J7*%
X54380000Y-26962500D03*
D23*
X56920000Y-26962500D03*
X59460000Y-26962500D03*
X62000000Y-26962500D03*
X64540000Y-26962500D03*
%TD*%
D11*
%TO.C,C12*%
X335562500Y-69000000D03*
X332437500Y-69000000D03*
%TD*%
D13*
%TO.C,C115*%
X244367500Y-137848750D03*
X244367500Y-134723750D03*
%TD*%
D11*
%TO.C,C50*%
X60562500Y-110000000D03*
X57437500Y-110000000D03*
%TD*%
%TO.C,C51*%
X60522500Y-149955000D03*
X57397500Y-149955000D03*
%TD*%
D25*
%TO.C,R34*%
X66937500Y-60350000D03*
X66937500Y-57250000D03*
%TD*%
D22*
%TO.C,J2*%
X355000000Y-32500000D03*
D23*
X357540000Y-32500000D03*
%TD*%
D11*
%TO.C,C58*%
X64562500Y-48350000D03*
X61437500Y-48350000D03*
%TD*%
%TO.C,C59*%
X56562500Y-51350000D03*
X53437500Y-51350000D03*
%TD*%
D44*
%TO.C,C111*%
X303000000Y-50437500D03*
X303000000Y-53562500D03*
%TD*%
D13*
%TO.C,C120*%
X280000000Y-138237500D03*
X280000000Y-135112500D03*
%TD*%
D11*
%TO.C,C52*%
X60522500Y-144955000D03*
X57397500Y-144955000D03*
%TD*%
D13*
%TO.C,C123*%
X275000000Y-138237500D03*
X275000000Y-135112500D03*
%TD*%
D11*
%TO.C,C35*%
X126625000Y-147675000D03*
X123500000Y-147675000D03*
%TD*%
D13*
%TO.C,C121*%
X265000000Y-138237500D03*
X265000000Y-135112500D03*
%TD*%
D27*
%TO.C,C60*%
X53437500Y-45350000D03*
X56562500Y-45350000D03*
%TD*%
D13*
%TO.C,C116*%
X316367500Y-138237500D03*
X316367500Y-135112500D03*
%TD*%
D21*
%TO.C,R28*%
X46790000Y-37850000D03*
X46790000Y-40950000D03*
%TD*%
D44*
%TO.C,C108*%
X333000000Y-50437500D03*
X333000000Y-53562500D03*
%TD*%
D45*
%TO.C,R8*%
X138100000Y-99675000D03*
X135000000Y-99675000D03*
%TD*%
D13*
%TO.C,C33*%
X126500000Y-132737500D03*
X126500000Y-129612500D03*
%TD*%
D27*
%TO.C,C11*%
X322437500Y-69000000D03*
X325562500Y-69000000D03*
%TD*%
%TO.C,C34*%
X130937500Y-133175000D03*
X134062500Y-133175000D03*
%TD*%
D21*
%TO.C,R29*%
X51000000Y-37850000D03*
X51000000Y-40950000D03*
%TD*%
D26*
%TO.C,R30*%
X64400000Y-40350000D03*
X67500000Y-40350000D03*
%TD*%
D44*
%TO.C,C31*%
X117500000Y-116875000D03*
X117500000Y-120000000D03*
%TD*%
D27*
%TO.C,C26*%
X145000000Y-109675000D03*
X148125000Y-109675000D03*
%TD*%
D13*
%TO.C,C28*%
X137500000Y-119675000D03*
X137500000Y-116550000D03*
%TD*%
D11*
%TO.C,C63*%
X64562500Y-53350000D03*
X61437500Y-53350000D03*
%TD*%
%TO.C,C49*%
X60562500Y-115000000D03*
X57437500Y-115000000D03*
%TD*%
D46*
%TO.C,C155*%
X71000000Y-156350000D03*
X71000000Y-161650000D03*
%TD*%
D21*
%TO.C,R32*%
X56000000Y-30350000D03*
X56000000Y-33450000D03*
%TD*%
D22*
%TO.C,J3*%
X340000000Y-143335000D03*
D23*
X337460000Y-143335000D03*
%TD*%
D27*
%TO.C,C30*%
X145000000Y-114675000D03*
X148125000Y-114675000D03*
%TD*%
D22*
%TO.C,J1*%
X360000000Y-143335000D03*
D23*
X357460000Y-143335000D03*
%TD*%
D47*
%TO.C,D3*%
X30000000Y-119450000D03*
X30000000Y-112550000D03*
%TD*%
D11*
%TO.C,C32*%
X134500000Y-116000000D03*
X131375000Y-116000000D03*
%TD*%
D24*
%TO.C,PS8*%
X44610000Y-74528000D03*
X44610000Y-61068000D03*
X44610000Y-58528000D03*
X58580000Y-58528000D03*
X58580000Y-61068000D03*
X58580000Y-71988000D03*
X58580000Y-74528000D03*
%TD*%
D27*
%TO.C,C22*%
X268500000Y-116286250D03*
X271625000Y-116286250D03*
%TD*%
%TO.C,C125*%
X363000000Y-73085000D03*
X366125000Y-73085000D03*
%TD*%
D13*
%TO.C,C122*%
X270000000Y-138237500D03*
X270000000Y-135112500D03*
%TD*%
D11*
%TO.C,C23*%
X317930000Y-115286250D03*
X314805000Y-115286250D03*
%TD*%
D13*
%TO.C,C27*%
X122500000Y-114062500D03*
X122500000Y-110937500D03*
%TD*%
D11*
%TO.C,C21*%
X281930000Y-115286250D03*
X278805000Y-115286250D03*
%TD*%
%TO.C,C37*%
X142562500Y-147675000D03*
X139437500Y-147675000D03*
%TD*%
D13*
%TO.C,C117*%
X311367500Y-138237500D03*
X311367500Y-135112500D03*
%TD*%
D21*
%TO.C,R9*%
X140500000Y-140175000D03*
X140500000Y-143275000D03*
%TD*%
D13*
%TO.C,C113*%
X234367500Y-137848750D03*
X234367500Y-134723750D03*
%TD*%
D44*
%TO.C,C109*%
X323000000Y-50437500D03*
X323000000Y-53562500D03*
%TD*%
D22*
%TO.C,J21*%
X56000000Y-95455000D03*
D23*
X56000000Y-92915000D03*
%TD*%
D11*
%TO.C,C29*%
X131562500Y-97175000D03*
X128437500Y-97175000D03*
%TD*%
D27*
%TO.C,C124*%
X355937500Y-107530000D03*
X359062500Y-107530000D03*
%TD*%
D13*
%TO.C,C119*%
X301367500Y-138237500D03*
X301367500Y-135112500D03*
%TD*%
D11*
%TO.C,C25*%
X131562500Y-102675000D03*
X128437500Y-102675000D03*
%TD*%
D44*
%TO.C,C110*%
X313000000Y-50437500D03*
X313000000Y-53562500D03*
%TD*%
D11*
%TO.C,C7*%
X246562500Y-115286250D03*
X243437500Y-115286250D03*
%TD*%
D46*
%TO.C,C152*%
X80000000Y-156350000D03*
X80000000Y-161650000D03*
%TD*%
D20*
%TO.C,J12*%
X49380000Y-20350000D03*
X54460000Y-20350000D03*
X59540000Y-20350000D03*
X64620000Y-20350000D03*
%TD*%
M02*
