%TF.GenerationSoftware,KiCad,Pcbnew,9.0.1*%
%TF.CreationDate,2025-12-19T01:31:41-08:00*%
%TF.ProjectId,ControlBoard,436f6e74-726f-46c4-926f-6172642e6b69,rev?*%
%TF.SameCoordinates,Original*%
%TF.FileFunction,Soldermask,Top*%
%TF.FilePolarity,Negative*%
%FSLAX46Y46*%
G04 Gerber Fmt 4.6, Leading zero omitted, Abs format (unit mm)*
G04 Created by KiCad (PCBNEW 9.0.1) date 2025-12-19 01:31:41*
%MOMM*%
%LPD*%
G01*
G04 APERTURE LIST*
G04 Aperture macros list*
%AMRoundRect*
0 Rectangle with rounded corners*
0 $1 Rounding radius*
0 $2 $3 $4 $5 $6 $7 $8 $9 X,Y pos of 4 corners*
0 Add a 4 corners polygon primitive as box body*
4,1,4,$2,$3,$4,$5,$6,$7,$8,$9,$2,$3,0*
0 Add four circle primitives for the rounded corners*
1,1,$1+$1,$2,$3*
1,1,$1+$1,$4,$5*
1,1,$1+$1,$6,$7*
1,1,$1+$1,$8,$9*
0 Add four rect primitives between the rounded corners*
20,1,$1+$1,$2,$3,$4,$5,0*
20,1,$1+$1,$4,$5,$6,$7,0*
20,1,$1+$1,$6,$7,$8,$9,0*
20,1,$1+$1,$8,$9,$2,$3,0*%
%AMFreePoly0*
4,1,37,0.800000,0.796148,0.878414,0.796148,1.032228,0.765552,1.177117,0.705537,1.307515,0.618408,1.418408,0.507515,1.505537,0.377117,1.565552,0.232228,1.596148,0.078414,1.596148,-0.078414,1.565552,-0.232228,1.505537,-0.377117,1.418408,-0.507515,1.307515,-0.618408,1.177117,-0.705537,1.032228,-0.765552,0.878414,-0.796148,0.800000,-0.796148,0.800000,-0.800000,-1.400000,-0.800000,
-1.403843,-0.796157,-1.439018,-0.796157,-1.511114,-0.766294,-1.566294,-0.711114,-1.596157,-0.639018,-1.596157,-0.603843,-1.600000,-0.600000,-1.600000,0.600000,-1.596157,0.603843,-1.596157,0.639018,-1.566294,0.711114,-1.511114,0.766294,-1.439018,0.796157,-1.403843,0.796157,-1.400000,0.800000,0.800000,0.800000,0.800000,0.796148,0.800000,0.796148,$1*%
%AMFreePoly1*
4,1,37,1.403843,0.796157,1.439018,0.796157,1.511114,0.766294,1.566294,0.711114,1.596157,0.639018,1.596157,0.603843,1.600000,0.600000,1.600000,-0.600000,1.596157,-0.603843,1.596157,-0.639018,1.566294,-0.711114,1.511114,-0.766294,1.439018,-0.796157,1.403843,-0.796157,1.400000,-0.800000,-0.800000,-0.800000,-0.800000,-0.796148,-0.878414,-0.796148,-1.032228,-0.765552,-1.177117,-0.705537,
-1.307515,-0.618408,-1.418408,-0.507515,-1.505537,-0.377117,-1.565552,-0.232228,-1.596148,-0.078414,-1.596148,0.078414,-1.565552,0.232228,-1.505537,0.377117,-1.418408,0.507515,-1.307515,0.618408,-1.177117,0.705537,-1.032228,0.765552,-0.878414,0.796148,-0.800000,0.796148,-0.800000,0.800000,1.400000,0.800000,1.403843,0.796157,1.403843,0.796157,$1*%
%AMFreePoly2*
4,1,37,0.603843,0.796157,0.639018,0.796157,0.711114,0.766294,0.766294,0.711114,0.796157,0.639018,0.796157,0.603843,0.800000,0.600000,0.800000,-0.600000,0.796157,-0.603843,0.796157,-0.639018,0.766294,-0.711114,0.711114,-0.766294,0.639018,-0.796157,0.603843,-0.796157,0.600000,-0.800000,0.000000,-0.800000,0.000000,-0.796148,-0.078414,-0.796148,-0.232228,-0.765552,-0.377117,-0.705537,
-0.507515,-0.618408,-0.618408,-0.507515,-0.705537,-0.377117,-0.765552,-0.232228,-0.796148,-0.078414,-0.796148,0.078414,-0.765552,0.232228,-0.705537,0.377117,-0.618408,0.507515,-0.507515,0.618408,-0.377117,0.705537,-0.232228,0.765552,-0.078414,0.796148,0.000000,0.796148,0.000000,0.800000,0.600000,0.800000,0.603843,0.796157,0.603843,0.796157,$1*%
%AMFreePoly3*
4,1,37,0.000000,0.796148,0.078414,0.796148,0.232228,0.765552,0.377117,0.705537,0.507515,0.618408,0.618408,0.507515,0.705537,0.377117,0.765552,0.232228,0.796148,0.078414,0.796148,-0.078414,0.765552,-0.232228,0.705537,-0.377117,0.618408,-0.507515,0.507515,-0.618408,0.377117,-0.705537,0.232228,-0.765552,0.078414,-0.796148,0.000000,-0.796148,0.000000,-0.800000,-0.600000,-0.800000,
-0.603843,-0.796157,-0.639018,-0.796157,-0.711114,-0.766294,-0.766294,-0.711114,-0.796157,-0.639018,-0.796157,-0.603843,-0.800000,-0.600000,-0.800000,0.600000,-0.796157,0.603843,-0.796157,0.639018,-0.766294,0.711114,-0.711114,0.766294,-0.639018,0.796157,-0.603843,0.796157,-0.600000,0.800000,0.000000,0.800000,0.000000,0.796148,0.000000,0.796148,$1*%
G04 Aperture macros list end*
%ADD10R,1.850000X3.500000*%
%ADD11RoundRect,0.250000X-1.075000X0.400000X-1.075000X-0.400000X1.075000X-0.400000X1.075000X0.400000X0*%
%ADD12R,1.750000X1.000000*%
%ADD13R,3.500000X1.850000*%
%ADD14RoundRect,0.250000X-0.412500X-1.100000X0.412500X-1.100000X0.412500X1.100000X-0.412500X1.100000X0*%
%ADD15C,3.000000*%
%ADD16C,2.200000*%
%ADD17C,1.850000*%
%ADD18FreePoly0,180.000000*%
%ADD19RoundRect,0.200000X0.600000X0.600000X-0.600000X0.600000X-0.600000X-0.600000X0.600000X-0.600000X0*%
%ADD20RoundRect,0.800000X0.800000X0.000010X-0.800000X0.000010X-0.800000X-0.000010X0.800000X-0.000010X0*%
%ADD21C,1.600000*%
%ADD22FreePoly1,180.000000*%
%ADD23FreePoly2,180.000000*%
%ADD24FreePoly3,180.000000*%
%ADD25R,0.650000X1.925000*%
%ADD26RoundRect,0.250000X0.412500X1.100000X-0.412500X1.100000X-0.412500X-1.100000X0.412500X-1.100000X0*%
%ADD27RoundRect,0.250000X1.075000X-0.400000X1.075000X0.400000X-1.075000X0.400000X-1.075000X-0.400000X0*%
%ADD28R,1.000000X1.750000*%
%ADD29RoundRect,0.250000X0.400000X1.075000X-0.400000X1.075000X-0.400000X-1.075000X0.400000X-1.075000X0*%
%ADD30R,1.000000X0.950000*%
%ADD31R,1.550000X2.350000*%
%ADD32C,2.550000*%
%ADD33R,1.075000X0.500000*%
%ADD34R,1.700000X1.700000*%
%ADD35C,1.700000*%
%ADD36RoundRect,0.250000X-1.100000X0.412500X-1.100000X-0.412500X1.100000X-0.412500X1.100000X0.412500X0*%
%ADD37C,1.500000*%
%ADD38R,1.950000X1.950000*%
%ADD39C,1.950000*%
%ADD40RoundRect,0.250000X-0.400000X-1.075000X0.400000X-1.075000X0.400000X1.075000X-0.400000X1.075000X0*%
%ADD41R,2.025000X2.025000*%
%ADD42C,2.025000*%
%ADD43R,0.850000X1.050000*%
%ADD44C,2.100000*%
%ADD45RoundRect,0.250000X1.100000X-0.412500X1.100000X0.412500X-1.100000X0.412500X-1.100000X-0.412500X0*%
%ADD46C,1.725000*%
%ADD47C,1.217000*%
%ADD48R,1.500000X1.500000*%
%ADD49R,1.800000X1.800000*%
%ADD50C,1.800000*%
%ADD51R,0.650000X1.850000*%
%ADD52C,9.500000*%
%ADD53R,0.900000X1.350000*%
%ADD54R,1.000000X0.400000*%
%ADD55R,2.400000X2.400000*%
%ADD56C,2.400000*%
%ADD57R,1.303000X1.303000*%
%ADD58C,1.303000*%
%ADD59R,0.450000X1.475000*%
G04 APERTURE END LIST*
D10*
%TO.C,C174*%
X201000000Y-77300000D03*
X201000000Y-72000000D03*
%TD*%
%TO.C,C177*%
X242000000Y-72000000D03*
X242000000Y-77300000D03*
%TD*%
%TO.C,C173*%
X78000000Y-72000000D03*
X78000000Y-77300000D03*
%TD*%
%TO.C,C172*%
X118000000Y-72000000D03*
X118000000Y-77300000D03*
%TD*%
D11*
%TO.C,R127*%
X305000000Y-97000000D03*
X305000000Y-100100000D03*
%TD*%
D12*
%TO.C,LED37*%
X305000000Y-91000000D03*
X305000000Y-94000000D03*
%TD*%
D11*
%TO.C,R126*%
X268000000Y-96900000D03*
X268000000Y-100000000D03*
%TD*%
D12*
%TO.C,LED36*%
X268000000Y-91000000D03*
X268000000Y-94000000D03*
%TD*%
D11*
%TO.C,R125*%
X233000000Y-96450000D03*
X233000000Y-99550000D03*
%TD*%
D12*
%TO.C,LED35*%
X233000000Y-90500000D03*
X233000000Y-93500000D03*
%TD*%
D13*
%TO.C,C171*%
X91650000Y-91000000D03*
X86350000Y-91000000D03*
%TD*%
%TO.C,C170*%
X101650000Y-91000000D03*
X96350000Y-91000000D03*
%TD*%
%TO.C,C169*%
X112000000Y-91000000D03*
X106700000Y-91000000D03*
%TD*%
%TO.C,C168*%
X122000000Y-91000000D03*
X116700000Y-91000000D03*
%TD*%
D14*
%TO.C,C40*%
X91380000Y-55300000D03*
X88255000Y-55300000D03*
%TD*%
%TO.C,C126*%
X90380000Y-50300000D03*
X87255000Y-50300000D03*
%TD*%
D13*
%TO.C,C159*%
X354850000Y-95500000D03*
X360150000Y-95500000D03*
%TD*%
%TO.C,C158*%
X344350000Y-95500000D03*
X349650000Y-95500000D03*
%TD*%
%TO.C,C157*%
X354850000Y-86000000D03*
X360150000Y-86000000D03*
%TD*%
%TO.C,C156*%
X344350000Y-86000000D03*
X349650000Y-86000000D03*
%TD*%
D14*
%TO.C,C4*%
X323437500Y-90500000D03*
X326562500Y-90500000D03*
%TD*%
D15*
%TO.C,TP9*%
X239500000Y-124675000D03*
%TD*%
%TO.C,TP7*%
X227500000Y-124675000D03*
%TD*%
D11*
%TO.C,R99*%
X229500000Y-132286250D03*
X229500000Y-129186250D03*
%TD*%
D15*
%TO.C,TP39*%
X292500000Y-77500000D03*
%TD*%
%TO.C,TP38*%
X285000000Y-72500000D03*
%TD*%
%TO.C,TP37*%
X285000000Y-77500000D03*
%TD*%
%TO.C,TP36*%
X285000000Y-82500000D03*
%TD*%
D16*
%TO.C,A1*%
X187725000Y-155962500D03*
D17*
X187425000Y-152932500D03*
X182575000Y-152932500D03*
D16*
X182275000Y-155962500D03*
D18*
X194690000Y-156092500D03*
D19*
X193890000Y-156092500D03*
D20*
X194690000Y-153552500D03*
D21*
X193890000Y-153552500D03*
D22*
X194690000Y-151012500D03*
D23*
X193890000Y-151012500D03*
D20*
X194690000Y-148472500D03*
D21*
X193890000Y-148472500D03*
D20*
X194690000Y-145932500D03*
D21*
X193890000Y-145932500D03*
D20*
X194690000Y-143392500D03*
D21*
X193890000Y-143392500D03*
D20*
X194690000Y-140852500D03*
D21*
X193890000Y-140852500D03*
D22*
X194690000Y-138312500D03*
D23*
X193890000Y-138312500D03*
D20*
X194690000Y-135772500D03*
D21*
X193890000Y-135772500D03*
D20*
X194690000Y-133232500D03*
D21*
X193890000Y-133232500D03*
D20*
X194690000Y-130692500D03*
D21*
X193890000Y-130692500D03*
D20*
X194690000Y-128152500D03*
D21*
X193890000Y-128152500D03*
D22*
X194690000Y-125612500D03*
D23*
X193890000Y-125612500D03*
D20*
X194690000Y-123072500D03*
D21*
X193890000Y-123072500D03*
D20*
X194690000Y-120532500D03*
D21*
X193890000Y-120532500D03*
D20*
X194690000Y-117992500D03*
D21*
X193890000Y-117992500D03*
D20*
X194690000Y-115452500D03*
D21*
X193890000Y-115452500D03*
D22*
X194690000Y-112912500D03*
D23*
X193890000Y-112912500D03*
D20*
X194690000Y-110372500D03*
D21*
X193890000Y-110372500D03*
D20*
X194690000Y-107832500D03*
D21*
X193890000Y-107832500D03*
X176110000Y-107832500D03*
D20*
X175310000Y-107832500D03*
D21*
X176110000Y-110372500D03*
D20*
X175310000Y-110372500D03*
D24*
X176110000Y-112912500D03*
D18*
X175310000Y-112912500D03*
D21*
X176110000Y-115452500D03*
D20*
X175310000Y-115452500D03*
D21*
X176110000Y-117992500D03*
D20*
X175310000Y-117992500D03*
D21*
X176110000Y-120532500D03*
D20*
X175310000Y-120532500D03*
D21*
X176110000Y-123072500D03*
D20*
X175310000Y-123072500D03*
D24*
X176110000Y-125612500D03*
D18*
X175310000Y-125612500D03*
D21*
X176110000Y-128152500D03*
D20*
X175310000Y-128152500D03*
D21*
X176110000Y-130692500D03*
D20*
X175310000Y-130692500D03*
D21*
X176110000Y-133232500D03*
D20*
X175310000Y-133232500D03*
D21*
X176110000Y-135772500D03*
D20*
X175310000Y-135772500D03*
D24*
X176110000Y-138312500D03*
D18*
X175310000Y-138312500D03*
D21*
X176110000Y-140852500D03*
D20*
X175310000Y-140852500D03*
D21*
X176110000Y-143392500D03*
D20*
X175310000Y-143392500D03*
D21*
X176110000Y-145932500D03*
D20*
X175310000Y-145932500D03*
D21*
X176110000Y-148472500D03*
D20*
X175310000Y-148472500D03*
D24*
X176110000Y-151012500D03*
D18*
X175310000Y-151012500D03*
D21*
X176110000Y-153552500D03*
D20*
X175310000Y-153552500D03*
D21*
X176110000Y-156092500D03*
D20*
X175310000Y-156092500D03*
%TD*%
D25*
%TO.C,IC11*%
X252035000Y-70688000D03*
X253305000Y-70688000D03*
X254575000Y-70688000D03*
X255845000Y-70688000D03*
X257115000Y-70688000D03*
X258385000Y-70688000D03*
X259655000Y-70688000D03*
X260925000Y-70688000D03*
X260925000Y-61264000D03*
X259655000Y-61264000D03*
X258385000Y-61264000D03*
X257115000Y-61264000D03*
X255845000Y-61264000D03*
X254575000Y-61264000D03*
X253305000Y-61264000D03*
X252035000Y-61264000D03*
%TD*%
D26*
%TO.C,C90*%
X269067500Y-53400000D03*
X265942500Y-53400000D03*
%TD*%
D27*
%TO.C,R63*%
X246440000Y-51550000D03*
X246440000Y-48450000D03*
%TD*%
D14*
%TO.C,C130*%
X251377500Y-50400000D03*
X254502500Y-50400000D03*
%TD*%
D28*
%TO.C,LED25*%
X276440000Y-77500000D03*
X273440000Y-77500000D03*
%TD*%
D14*
%TO.C,C87*%
X254917500Y-80688000D03*
X258042500Y-80688000D03*
%TD*%
D29*
%TO.C,R56*%
X271040000Y-72500000D03*
X267940000Y-72500000D03*
%TD*%
D26*
%TO.C,C86*%
X258042500Y-74400000D03*
X254917500Y-74400000D03*
%TD*%
D28*
%TO.C,LED28*%
X267440000Y-60400000D03*
X270440000Y-60400000D03*
%TD*%
D12*
%TO.C,LED27*%
X246440000Y-59050000D03*
X246440000Y-56050000D03*
%TD*%
D14*
%TO.C,C88*%
X252377500Y-55400000D03*
X255502500Y-55400000D03*
%TD*%
D29*
%TO.C,R57*%
X262990000Y-40400000D03*
X259890000Y-40400000D03*
%TD*%
D26*
%TO.C,C94*%
X269065000Y-48400000D03*
X265940000Y-48400000D03*
%TD*%
D29*
%TO.C,R55*%
X271040000Y-77500000D03*
X267940000Y-77500000D03*
%TD*%
D28*
%TO.C,LED26*%
X276440000Y-72500000D03*
X273440000Y-72500000D03*
%TD*%
D11*
%TO.C,R61*%
X271440000Y-37900000D03*
X271440000Y-41000000D03*
%TD*%
D30*
%TO.C,FB5*%
X253940000Y-32100000D03*
X253940000Y-33700000D03*
%TD*%
D31*
%TO.C,D11*%
X266440000Y-32900000D03*
X266440000Y-37200000D03*
%TD*%
D32*
%TO.C,J20*%
X251320000Y-20400000D03*
X256400000Y-20400000D03*
X261480000Y-20400000D03*
X266560000Y-20400000D03*
%TD*%
D33*
%TO.C,D10*%
X251616000Y-42900000D03*
X253940000Y-42900000D03*
%TD*%
D14*
%TO.C,C95*%
X265815000Y-42900000D03*
X268940000Y-42900000D03*
%TD*%
D26*
%TO.C,C89*%
X263502500Y-55400000D03*
X260377500Y-55400000D03*
%TD*%
D34*
%TO.C,J17*%
X256320000Y-27012500D03*
D35*
X258860000Y-27012500D03*
X261400000Y-27012500D03*
X263940000Y-27012500D03*
X266480000Y-27012500D03*
%TD*%
D26*
%TO.C,C105*%
X224497500Y-48350000D03*
X227622500Y-48350000D03*
%TD*%
D28*
%TO.C,LED30*%
X231060000Y-77450000D03*
X234060000Y-77450000D03*
%TD*%
D26*
%TO.C,C97*%
X212537500Y-74350000D03*
X215662500Y-74350000D03*
%TD*%
D25*
%TO.C,IC12*%
X209655000Y-61214000D03*
X210925000Y-61214000D03*
X212195000Y-61214000D03*
X213465000Y-61214000D03*
X214735000Y-61214000D03*
X216005000Y-61214000D03*
X217275000Y-61214000D03*
X218545000Y-61214000D03*
X218545000Y-70638000D03*
X217275000Y-70638000D03*
X216005000Y-70638000D03*
X214735000Y-70638000D03*
X213465000Y-70638000D03*
X212195000Y-70638000D03*
X210925000Y-70638000D03*
X209655000Y-70638000D03*
%TD*%
D28*
%TO.C,LED29*%
X231110000Y-72450000D03*
X234110000Y-72450000D03*
%TD*%
D12*
%TO.C,LED31*%
X204060000Y-56350000D03*
X204060000Y-59350000D03*
%TD*%
D14*
%TO.C,C98*%
X215622500Y-80350000D03*
X212497500Y-80350000D03*
%TD*%
D29*
%TO.C,R66*%
X224960000Y-77450000D03*
X228060000Y-77450000D03*
%TD*%
D32*
%TO.C,J14*%
X226680000Y-20350000D03*
X221600000Y-20350000D03*
X216520000Y-20350000D03*
X211440000Y-20350000D03*
%TD*%
D26*
%TO.C,C101*%
X224497500Y-53350000D03*
X227622500Y-53350000D03*
%TD*%
D31*
%TO.C,D13*%
X226560000Y-37500000D03*
X226560000Y-33200000D03*
%TD*%
D29*
%TO.C,R67*%
X219060000Y-40350000D03*
X222160000Y-40350000D03*
%TD*%
D33*
%TO.C,D12*%
X213884000Y-42850000D03*
X211560000Y-42850000D03*
%TD*%
D28*
%TO.C,LED32*%
X228060000Y-60350000D03*
X225060000Y-60350000D03*
%TD*%
D14*
%TO.C,C131*%
X212622500Y-50350000D03*
X209497500Y-50350000D03*
%TD*%
%TO.C,C106*%
X229060000Y-42850000D03*
X225935000Y-42850000D03*
%TD*%
D30*
%TO.C,FB6*%
X214060000Y-33650000D03*
X214060000Y-32050000D03*
%TD*%
D11*
%TO.C,R71*%
X231560000Y-40350000D03*
X231560000Y-37250000D03*
%TD*%
D14*
%TO.C,C99*%
X213060000Y-55350000D03*
X209935000Y-55350000D03*
%TD*%
D29*
%TO.C,R65*%
X225060000Y-72450000D03*
X228160000Y-72450000D03*
%TD*%
D27*
%TO.C,R73*%
X204060000Y-50350000D03*
X204060000Y-53450000D03*
%TD*%
D26*
%TO.C,C100*%
X218497500Y-55350000D03*
X221622500Y-55350000D03*
%TD*%
D35*
%TO.C,J9*%
X226600000Y-26962500D03*
X224060000Y-26962500D03*
X221520000Y-26962500D03*
X218980000Y-26962500D03*
D34*
X216440000Y-26962500D03*
%TD*%
D29*
%TO.C,R36*%
X187780000Y-76500000D03*
X184680000Y-76500000D03*
%TD*%
D32*
%TO.C,J19*%
X169060000Y-20400000D03*
X174140000Y-20400000D03*
X179220000Y-20400000D03*
X184300000Y-20400000D03*
%TD*%
D14*
%TO.C,C128*%
X170117500Y-50400000D03*
X173242500Y-50400000D03*
%TD*%
D30*
%TO.C,FB3*%
X171680000Y-32100000D03*
X171680000Y-33700000D03*
%TD*%
D11*
%TO.C,R41*%
X189180000Y-37300000D03*
X189180000Y-40400000D03*
%TD*%
D28*
%TO.C,LED18*%
X193730000Y-76500000D03*
X190730000Y-76500000D03*
%TD*%
D14*
%TO.C,C65*%
X172657500Y-80400000D03*
X175782500Y-80400000D03*
%TD*%
D26*
%TO.C,C74*%
X186242500Y-48400000D03*
X183117500Y-48400000D03*
%TD*%
D14*
%TO.C,C73*%
X183555000Y-42900000D03*
X186680000Y-42900000D03*
%TD*%
D26*
%TO.C,C64*%
X175782500Y-74400000D03*
X172657500Y-74400000D03*
%TD*%
D29*
%TO.C,R35*%
X187780000Y-71500000D03*
X184680000Y-71500000D03*
%TD*%
D25*
%TO.C,IC9*%
X169775000Y-70688000D03*
X171045000Y-70688000D03*
X172315000Y-70688000D03*
X173585000Y-70688000D03*
X174855000Y-70688000D03*
X176125000Y-70688000D03*
X177395000Y-70688000D03*
X178665000Y-70688000D03*
X178665000Y-61264000D03*
X177395000Y-61264000D03*
X176125000Y-61264000D03*
X174855000Y-61264000D03*
X173585000Y-61264000D03*
X172315000Y-61264000D03*
X171045000Y-61264000D03*
X169775000Y-61264000D03*
%TD*%
D26*
%TO.C,C68*%
X186242500Y-53400000D03*
X183117500Y-53400000D03*
%TD*%
D28*
%TO.C,LED20*%
X185180000Y-60400000D03*
X188180000Y-60400000D03*
%TD*%
D29*
%TO.C,R37*%
X180730000Y-40400000D03*
X177630000Y-40400000D03*
%TD*%
D14*
%TO.C,C66*%
X170555000Y-55400000D03*
X173680000Y-55400000D03*
%TD*%
D12*
%TO.C,LED19*%
X164180000Y-59400000D03*
X164180000Y-56400000D03*
%TD*%
D33*
%TO.C,D6*%
X171680000Y-42900000D03*
X174004000Y-42900000D03*
%TD*%
D31*
%TO.C,D7*%
X184180000Y-32900000D03*
X184180000Y-37200000D03*
%TD*%
D27*
%TO.C,R43*%
X164180000Y-52900000D03*
X164180000Y-49800000D03*
%TD*%
D28*
%TO.C,LED17*%
X193680000Y-71500000D03*
X190680000Y-71500000D03*
%TD*%
D26*
%TO.C,C67*%
X181242500Y-55400000D03*
X178117500Y-55400000D03*
%TD*%
D34*
%TO.C,J16*%
X174060000Y-27012500D03*
D35*
X176600000Y-27012500D03*
X179140000Y-27012500D03*
X181680000Y-27012500D03*
X184220000Y-27012500D03*
%TD*%
D25*
%TO.C,IC10*%
X127395000Y-70638000D03*
X128665000Y-70638000D03*
X129935000Y-70638000D03*
X131205000Y-70638000D03*
X132475000Y-70638000D03*
X133745000Y-70638000D03*
X135015000Y-70638000D03*
X136285000Y-70638000D03*
X136285000Y-61214000D03*
X135015000Y-61214000D03*
X133745000Y-61214000D03*
X132475000Y-61214000D03*
X131205000Y-61214000D03*
X129935000Y-61214000D03*
X128665000Y-61214000D03*
X127395000Y-61214000D03*
%TD*%
D26*
%TO.C,C83*%
X145362500Y-48350000D03*
X142237500Y-48350000D03*
%TD*%
D28*
%TO.C,LED21*%
X151800000Y-72450000D03*
X148800000Y-72450000D03*
%TD*%
D29*
%TO.C,R45*%
X145900000Y-72450000D03*
X142800000Y-72450000D03*
%TD*%
D12*
%TO.C,LED23*%
X121800000Y-59350000D03*
X121800000Y-56350000D03*
%TD*%
D14*
%TO.C,C76*%
X130277500Y-80350000D03*
X133402500Y-80350000D03*
%TD*%
D30*
%TO.C,FB4*%
X131800000Y-32050000D03*
X131800000Y-33650000D03*
%TD*%
D28*
%TO.C,LED24*%
X142800000Y-60350000D03*
X145800000Y-60350000D03*
%TD*%
D14*
%TO.C,C129*%
X127237500Y-50350000D03*
X130362500Y-50350000D03*
%TD*%
D29*
%TO.C,R47*%
X139300000Y-40350000D03*
X136200000Y-40350000D03*
%TD*%
D14*
%TO.C,C77*%
X127675000Y-55350000D03*
X130800000Y-55350000D03*
%TD*%
D32*
%TO.C,J13*%
X129180000Y-20350000D03*
X134260000Y-20350000D03*
X139340000Y-20350000D03*
X144420000Y-20350000D03*
%TD*%
D11*
%TO.C,R51*%
X149300000Y-37250000D03*
X149300000Y-40350000D03*
%TD*%
D33*
%TO.C,D8*%
X129300000Y-42850000D03*
X131624000Y-42850000D03*
%TD*%
D27*
%TO.C,R53*%
X121800000Y-52850000D03*
X121800000Y-49750000D03*
%TD*%
D14*
%TO.C,C84*%
X143675000Y-42850000D03*
X146800000Y-42850000D03*
%TD*%
D26*
%TO.C,C75*%
X133362500Y-74350000D03*
X130237500Y-74350000D03*
%TD*%
D29*
%TO.C,R46*%
X145800000Y-77450000D03*
X142700000Y-77450000D03*
%TD*%
D28*
%TO.C,LED22*%
X151800000Y-77450000D03*
X148800000Y-77450000D03*
%TD*%
D26*
%TO.C,C79*%
X145362500Y-53350000D03*
X142237500Y-53350000D03*
%TD*%
D31*
%TO.C,D9*%
X144300000Y-33200000D03*
X144300000Y-37500000D03*
%TD*%
D26*
%TO.C,C78*%
X139362500Y-55350000D03*
X136237500Y-55350000D03*
%TD*%
D34*
%TO.C,J8*%
X134180000Y-26962500D03*
D35*
X136720000Y-26962500D03*
X139260000Y-26962500D03*
X141800000Y-26962500D03*
X144340000Y-26962500D03*
%TD*%
D32*
%TO.C,J18*%
X104540000Y-20300000D03*
X99460000Y-20300000D03*
X94380000Y-20300000D03*
X89300000Y-20300000D03*
%TD*%
D28*
%TO.C,LED7*%
X111380000Y-71500000D03*
X108380000Y-71500000D03*
%TD*%
D30*
%TO.C,FB1*%
X89420000Y-31200000D03*
X89420000Y-32800000D03*
%TD*%
D14*
%TO.C,C39*%
X90357500Y-80300000D03*
X93482500Y-80300000D03*
%TD*%
D29*
%TO.C,R15*%
X98470000Y-40300000D03*
X95370000Y-40300000D03*
%TD*%
D11*
%TO.C,R19*%
X106920000Y-37800000D03*
X106920000Y-40900000D03*
%TD*%
D33*
%TO.C,D1*%
X89420000Y-42800000D03*
X91744000Y-42800000D03*
%TD*%
D31*
%TO.C,D2*%
X101920000Y-33150000D03*
X101920000Y-37450000D03*
%TD*%
D26*
%TO.C,C38*%
X93482500Y-74300000D03*
X90357500Y-74300000D03*
%TD*%
D27*
%TO.C,R21*%
X81880000Y-53400000D03*
X81880000Y-50300000D03*
%TD*%
D26*
%TO.C,C42*%
X104942500Y-53300000D03*
X101817500Y-53300000D03*
%TD*%
D29*
%TO.C,R14*%
X105930000Y-76500000D03*
X102830000Y-76500000D03*
%TD*%
%TO.C,R13*%
X105930000Y-71500000D03*
X102830000Y-71500000D03*
%TD*%
D14*
%TO.C,C47*%
X101295000Y-42800000D03*
X104420000Y-42800000D03*
%TD*%
D28*
%TO.C,LED8*%
X111430000Y-76500000D03*
X108430000Y-76500000D03*
%TD*%
D26*
%TO.C,C46*%
X104942500Y-48300000D03*
X101817500Y-48300000D03*
%TD*%
D12*
%TO.C,LED9*%
X81880000Y-59300000D03*
X81880000Y-56300000D03*
%TD*%
D25*
%TO.C,IC7*%
X87515000Y-70588000D03*
X88785000Y-70588000D03*
X90055000Y-70588000D03*
X91325000Y-70588000D03*
X92595000Y-70588000D03*
X93865000Y-70588000D03*
X95135000Y-70588000D03*
X96405000Y-70588000D03*
X96405000Y-61164000D03*
X95135000Y-61164000D03*
X93865000Y-61164000D03*
X92595000Y-61164000D03*
X91325000Y-61164000D03*
X90055000Y-61164000D03*
X88785000Y-61164000D03*
X87515000Y-61164000D03*
%TD*%
D28*
%TO.C,LED10*%
X102880000Y-60300000D03*
X105880000Y-60300000D03*
%TD*%
D34*
%TO.C,J15*%
X91840000Y-26912500D03*
D35*
X94380000Y-26912500D03*
X96920000Y-26912500D03*
X99460000Y-26912500D03*
X102000000Y-26912500D03*
%TD*%
D28*
%TO.C,LED13*%
X71000000Y-71500000D03*
X68000000Y-71500000D03*
%TD*%
D13*
%TO.C,C149*%
X109000000Y-118000000D03*
X103700000Y-118000000D03*
%TD*%
D36*
%TO.C,C133*%
X165000000Y-146875000D03*
X165000000Y-150000000D03*
%TD*%
D27*
%TO.C,R87*%
X310000000Y-59550000D03*
X310000000Y-56450000D03*
%TD*%
D13*
%TO.C,C143*%
X29700000Y-143000000D03*
X35000000Y-143000000D03*
%TD*%
D37*
%TO.C,Y1*%
X142500000Y-109795000D03*
X142500000Y-114675000D03*
%TD*%
D15*
%TO.C,TP26*%
X203000000Y-134000000D03*
%TD*%
%TO.C,TP14*%
X316367500Y-123286250D03*
%TD*%
D14*
%TO.C,C9*%
X322437500Y-69000000D03*
X325562500Y-69000000D03*
%TD*%
D27*
%TO.C,R86*%
X323000000Y-28550000D03*
X323000000Y-25450000D03*
%TD*%
D15*
%TO.C,TP32*%
X165000000Y-114500000D03*
%TD*%
D38*
%TO.C,J22*%
X45450000Y-96855000D03*
D39*
X45450000Y-91855000D03*
%TD*%
D26*
%TO.C,C57*%
X64562500Y-48350000D03*
X61437500Y-48350000D03*
%TD*%
D40*
%TO.C,R4*%
X318450000Y-81000000D03*
X321550000Y-81000000D03*
%TD*%
D38*
%TO.C,J27*%
X98500000Y-146500000D03*
D39*
X93500000Y-146500000D03*
%TD*%
D41*
%TO.C,J24*%
X243525000Y-149356250D03*
D42*
X239715000Y-149356250D03*
X235905000Y-149356250D03*
X232095000Y-149356250D03*
X228285000Y-149356250D03*
X224475000Y-149356250D03*
%TD*%
D27*
%TO.C,R1*%
X167000000Y-79550000D03*
X167000000Y-76450000D03*
%TD*%
D26*
%TO.C,C17*%
X281930000Y-115286250D03*
X278805000Y-115286250D03*
%TD*%
D14*
%TO.C,C3*%
X323437500Y-86000000D03*
X326562500Y-86000000D03*
%TD*%
D11*
%TO.C,R114*%
X301367500Y-140675000D03*
X301367500Y-143775000D03*
%TD*%
D27*
%TO.C,R77*%
X333000000Y-46550000D03*
X333000000Y-43450000D03*
%TD*%
%TO.C,R82*%
X322000000Y-59550000D03*
X322000000Y-56450000D03*
%TD*%
D30*
%TO.C,FB2*%
X51000000Y-30350000D03*
X51000000Y-31950000D03*
%TD*%
D31*
%TO.C,D5*%
X65000000Y-32850000D03*
X65000000Y-37150000D03*
%TD*%
D29*
%TO.C,R25*%
X65550000Y-71500000D03*
X62450000Y-71500000D03*
%TD*%
D27*
%TO.C,R85*%
X323000000Y-34550000D03*
X323000000Y-31450000D03*
%TD*%
D43*
%TO.C,Z3*%
X313000000Y-50200000D03*
X313000000Y-53800000D03*
%TD*%
%TO.C,Z4*%
X303000000Y-50200000D03*
X303000000Y-53800000D03*
%TD*%
D27*
%TO.C,R3*%
X157000000Y-79550000D03*
X157000000Y-76450000D03*
%TD*%
D15*
%TO.C,TP31*%
X165000000Y-109462500D03*
%TD*%
D26*
%TO.C,C1*%
X245562500Y-97755000D03*
X242437500Y-97755000D03*
%TD*%
D36*
%TO.C,C137*%
X362500000Y-58437500D03*
X362500000Y-61562500D03*
%TD*%
D27*
%TO.C,R115*%
X280000000Y-131225000D03*
X280000000Y-128125000D03*
%TD*%
D15*
%TO.C,TP4*%
X303000000Y-64000000D03*
%TD*%
D44*
%TO.C,J6*%
X336905000Y-147285000D03*
X333095000Y-147285000D03*
%TD*%
D15*
%TO.C,TP22*%
X207500000Y-118500000D03*
%TD*%
D27*
%TO.C,R81*%
X327000000Y-59550000D03*
X327000000Y-56450000D03*
%TD*%
D11*
%TO.C,R102*%
X234367500Y-140736250D03*
X234367500Y-143836250D03*
%TD*%
D27*
%TO.C,R97*%
X303000000Y-34550000D03*
X303000000Y-31450000D03*
%TD*%
D14*
%TO.C,C6*%
X233437500Y-115755000D03*
X236562500Y-115755000D03*
%TD*%
D15*
%TO.C,TP30*%
X165000000Y-104500000D03*
%TD*%
D27*
%TO.C,R75*%
X338000000Y-59550000D03*
X338000000Y-56450000D03*
%TD*%
D11*
%TO.C,R120*%
X270000000Y-140675000D03*
X270000000Y-143775000D03*
%TD*%
D15*
%TO.C,TP20*%
X301367500Y-123286250D03*
%TD*%
D26*
%TO.C,C2*%
X245562500Y-92755000D03*
X242437500Y-92755000D03*
%TD*%
D36*
%TO.C,C138*%
X367000000Y-58437500D03*
X367000000Y-61562500D03*
%TD*%
D45*
%TO.C,C135*%
X341750000Y-116562500D03*
X341750000Y-113437500D03*
%TD*%
D26*
%TO.C,C53*%
X52562500Y-74000000D03*
X49437500Y-74000000D03*
%TD*%
%TO.C,C10*%
X335562500Y-69000000D03*
X332437500Y-69000000D03*
%TD*%
D43*
%TO.C,Z1*%
X333000000Y-50200000D03*
X333000000Y-53800000D03*
%TD*%
D10*
%TO.C,C154*%
X83000000Y-146350000D03*
X83000000Y-151650000D03*
%TD*%
D46*
%TO.C,PS1*%
X228000000Y-98515000D03*
X228000000Y-101055000D03*
X228000000Y-108675000D03*
X228000000Y-113755000D03*
%TD*%
D15*
%TO.C,TP21*%
X207500000Y-123500000D03*
%TD*%
D10*
%TO.C,C147*%
X71000000Y-156350000D03*
X71000000Y-161650000D03*
%TD*%
D47*
%TO.C,F1*%
X34550000Y-108000000D03*
X29450000Y-108000000D03*
%TD*%
D10*
%TO.C,C146*%
X62000000Y-156350000D03*
X62000000Y-161650000D03*
%TD*%
D13*
%TO.C,C142*%
X29700000Y-134200000D03*
X35000000Y-134200000D03*
%TD*%
D48*
%TO.C,K1*%
X333000000Y-125590000D03*
D39*
X333000000Y-137790000D03*
X345000000Y-137790000D03*
D37*
X345000000Y-125590000D03*
D39*
X339000000Y-123590000D03*
%TD*%
D43*
%TO.C,Z2*%
X323000000Y-50200000D03*
X323000000Y-53800000D03*
%TD*%
D40*
%TO.C,R10*%
X125000000Y-107175000D03*
X128100000Y-107175000D03*
%TD*%
D15*
%TO.C,TP8*%
X233500000Y-124675000D03*
%TD*%
D27*
%TO.C,R88*%
X315000000Y-59550000D03*
X315000000Y-56450000D03*
%TD*%
D11*
%TO.C,R108*%
X316367500Y-140675000D03*
X316367500Y-143775000D03*
%TD*%
D27*
%TO.C,R5*%
X223367500Y-136286250D03*
X223367500Y-133186250D03*
%TD*%
D13*
%TO.C,C148*%
X109000000Y-109000000D03*
X103700000Y-109000000D03*
%TD*%
D27*
%TO.C,R121*%
X275000000Y-131225000D03*
X275000000Y-128125000D03*
%TD*%
D12*
%TO.C,LED15*%
X41000000Y-59350000D03*
X41000000Y-56350000D03*
%TD*%
D11*
%TO.C,R31*%
X70000000Y-37250000D03*
X70000000Y-40350000D03*
%TD*%
D34*
%TO.C,JP1*%
X143500000Y-140175000D03*
D35*
X146040000Y-140175000D03*
%TD*%
D43*
%TO.C,Z12*%
X301367500Y-138475000D03*
X301367500Y-134875000D03*
%TD*%
D15*
%TO.C,TP33*%
X165000000Y-119462500D03*
%TD*%
D43*
%TO.C,Z10*%
X311367500Y-138475000D03*
X311367500Y-134875000D03*
%TD*%
D46*
%TO.C,PS13*%
X351887500Y-70000000D03*
X354427500Y-70000000D03*
X362047500Y-70000000D03*
X367127500Y-70000000D03*
%TD*%
D43*
%TO.C,Z13*%
X280000000Y-138475000D03*
X280000000Y-134875000D03*
%TD*%
D28*
%TO.C,LED33*%
X372050000Y-80000000D03*
X369050000Y-80000000D03*
%TD*%
D26*
%TO.C,C19*%
X317930000Y-115286250D03*
X314805000Y-115286250D03*
%TD*%
D15*
%TO.C,TP24*%
X209000000Y-105000000D03*
%TD*%
D49*
%TO.C,PS7*%
X56460000Y-105000000D03*
D50*
X61540000Y-105000000D03*
X71700000Y-105000000D03*
X53920000Y-150720000D03*
X64080000Y-150720000D03*
X74240000Y-150720000D03*
%TD*%
D27*
%TO.C,R84*%
X323000000Y-40550000D03*
X323000000Y-37450000D03*
%TD*%
D11*
%TO.C,R106*%
X244367500Y-140736250D03*
X244367500Y-143836250D03*
%TD*%
D15*
%TO.C,TP18*%
X306367500Y-123286250D03*
%TD*%
D14*
%TO.C,C55*%
X47437500Y-55500000D03*
X50562500Y-55500000D03*
%TD*%
D27*
%TO.C,R109*%
X311367500Y-131225000D03*
X311367500Y-128125000D03*
%TD*%
D46*
%TO.C,PS14*%
X344760000Y-104000000D03*
X347300000Y-104000000D03*
X354920000Y-104000000D03*
X360000000Y-104000000D03*
%TD*%
D43*
%TO.C,Z6*%
X234367500Y-138086250D03*
X234367500Y-134486250D03*
%TD*%
D46*
%TO.C,PS4*%
X121915000Y-117175000D03*
X121915000Y-119715000D03*
X121915000Y-127335000D03*
X121915000Y-132415000D03*
%TD*%
D28*
%TO.C,LED34*%
X367950000Y-115000000D03*
X364950000Y-115000000D03*
%TD*%
D51*
%TO.C,IC6*%
X134405000Y-119350000D03*
X133135000Y-119350000D03*
X131865000Y-119350000D03*
X130595000Y-119350000D03*
X130595000Y-130000000D03*
X131865000Y-130000000D03*
X133135000Y-130000000D03*
X134405000Y-130000000D03*
%TD*%
D27*
%TO.C,R78*%
X333000000Y-40550000D03*
X333000000Y-37450000D03*
%TD*%
D15*
%TO.C,TP35*%
X165000000Y-129462500D03*
%TD*%
%TO.C,TP3*%
X333000000Y-64000000D03*
%TD*%
D29*
%TO.C,R12*%
X171550000Y-138500000D03*
X168450000Y-138500000D03*
%TD*%
D15*
%TO.C,TP6*%
X313000000Y-64000000D03*
%TD*%
D44*
%TO.C,J4*%
X356905000Y-147285000D03*
X353095000Y-147285000D03*
%TD*%
D14*
%TO.C,C54*%
X49477500Y-80350000D03*
X52602500Y-80350000D03*
%TD*%
D28*
%TO.C,LED16*%
X62000000Y-60350000D03*
X65000000Y-60350000D03*
%TD*%
D15*
%TO.C,TP17*%
X270000000Y-123675000D03*
%TD*%
D27*
%TO.C,R79*%
X333000000Y-34550000D03*
X333000000Y-31450000D03*
%TD*%
D14*
%TO.C,C127*%
X47437500Y-50350000D03*
X50562500Y-50350000D03*
%TD*%
D27*
%TO.C,R92*%
X313000000Y-28550000D03*
X313000000Y-25450000D03*
%TD*%
D10*
%TO.C,C145*%
X53000000Y-156350000D03*
X53000000Y-161650000D03*
%TD*%
D27*
%TO.C,R89*%
X313000000Y-46550000D03*
X313000000Y-43450000D03*
%TD*%
D43*
%TO.C,Z7*%
X239367500Y-138086250D03*
X239367500Y-134486250D03*
%TD*%
%TO.C,Z16*%
X275000000Y-138475000D03*
X275000000Y-134875000D03*
%TD*%
D27*
%TO.C,R113*%
X301367500Y-131225000D03*
X301367500Y-128125000D03*
%TD*%
D48*
%TO.C,K2*%
X352000000Y-125590000D03*
D39*
X352000000Y-137790000D03*
X364000000Y-137790000D03*
D37*
X364000000Y-125590000D03*
D39*
X358000000Y-123590000D03*
%TD*%
D15*
%TO.C,TP23*%
X207500000Y-113500000D03*
%TD*%
%TO.C,TP15*%
X265000000Y-123675000D03*
%TD*%
D14*
%TO.C,C18*%
X268437500Y-116286250D03*
X271562500Y-116286250D03*
%TD*%
D27*
%TO.C,R83*%
X323000000Y-46550000D03*
X323000000Y-43450000D03*
%TD*%
%TO.C,R7*%
X259000000Y-136286250D03*
X259000000Y-133186250D03*
%TD*%
%TO.C,R6*%
X295367500Y-136286250D03*
X295367500Y-133186250D03*
%TD*%
D13*
%TO.C,C151*%
X87650000Y-125000000D03*
X82350000Y-125000000D03*
%TD*%
D43*
%TO.C,Z14*%
X265000000Y-138475000D03*
X265000000Y-134875000D03*
%TD*%
D44*
%TO.C,J5*%
X354450000Y-23095000D03*
X354450000Y-26905000D03*
%TD*%
D28*
%TO.C,LED14*%
X71000000Y-76500000D03*
X68000000Y-76500000D03*
%TD*%
D25*
%TO.C,IC3*%
X270555000Y-111467000D03*
X271825000Y-111467000D03*
X273095000Y-111467000D03*
X274365000Y-111467000D03*
X275635000Y-111467000D03*
X276905000Y-111467000D03*
X278175000Y-111467000D03*
X279445000Y-111467000D03*
X279445000Y-102043000D03*
X278175000Y-102043000D03*
X276905000Y-102043000D03*
X275635000Y-102043000D03*
X274365000Y-102043000D03*
X273095000Y-102043000D03*
X271825000Y-102043000D03*
X270555000Y-102043000D03*
%TD*%
D52*
%TO.C,H3*%
X32500000Y-157500000D03*
%TD*%
D27*
%TO.C,R98*%
X303000000Y-28550000D03*
X303000000Y-25450000D03*
%TD*%
%TO.C,R94*%
X298000000Y-59550000D03*
X298000000Y-56450000D03*
%TD*%
D15*
%TO.C,TP16*%
X311250000Y-123250000D03*
%TD*%
%TO.C,TP19*%
X275000000Y-123675000D03*
%TD*%
D29*
%TO.C,R124*%
X362550000Y-115000000D03*
X359450000Y-115000000D03*
%TD*%
D27*
%TO.C,R80*%
X333000000Y-28550000D03*
X333000000Y-25450000D03*
%TD*%
D53*
%TO.C,FL1*%
X135000000Y-135125000D03*
X132500000Y-135125000D03*
X132500000Y-139675000D03*
X135000000Y-139675000D03*
%TD*%
D27*
%TO.C,R117*%
X265000000Y-131225000D03*
X265000000Y-128125000D03*
%TD*%
D26*
%TO.C,C16*%
X317562500Y-92286250D03*
X314437500Y-92286250D03*
%TD*%
D12*
%TO.C,LED3*%
X295367500Y-142236250D03*
X295367500Y-139236250D03*
%TD*%
D13*
%TO.C,C150*%
X87650000Y-134000000D03*
X82350000Y-134000000D03*
%TD*%
D15*
%TO.C,TP2*%
X223000000Y-119675000D03*
%TD*%
D43*
%TO.C,Z15*%
X270000000Y-138475000D03*
X270000000Y-134875000D03*
%TD*%
D10*
%TO.C,C144*%
X44000000Y-156350000D03*
X44000000Y-161650000D03*
%TD*%
D52*
%TO.C,H1*%
X32500000Y-12500000D03*
%TD*%
D14*
%TO.C,C20*%
X304805000Y-116286250D03*
X307930000Y-116286250D03*
%TD*%
D28*
%TO.C,LED11*%
X91500000Y-101040000D03*
X88500000Y-101040000D03*
%TD*%
D45*
%TO.C,C134*%
X337500000Y-116562500D03*
X337500000Y-113437500D03*
%TD*%
D54*
%TO.C,IC14*%
X357000000Y-59700000D03*
X357000000Y-60350000D03*
X357000000Y-61000000D03*
X359000000Y-61000000D03*
X359000000Y-60350000D03*
X359000000Y-59700000D03*
%TD*%
D52*
%TO.C,H4*%
X367500000Y-157500000D03*
%TD*%
D27*
%TO.C,R91*%
X313000000Y-34550000D03*
X313000000Y-31450000D03*
%TD*%
D15*
%TO.C,TP10*%
X245500000Y-124675000D03*
%TD*%
D28*
%TO.C,LED6*%
X148000000Y-129675000D03*
X145000000Y-129675000D03*
%TD*%
D27*
%TO.C,R107*%
X316367500Y-131225000D03*
X316367500Y-128125000D03*
%TD*%
D26*
%TO.C,C14*%
X317562500Y-97286250D03*
X314437500Y-97286250D03*
%TD*%
D29*
%TO.C,R26*%
X65550000Y-76500000D03*
X62450000Y-76500000D03*
%TD*%
D27*
%TO.C,R96*%
X303000000Y-40550000D03*
X303000000Y-37450000D03*
%TD*%
D11*
%TO.C,R103*%
X239500000Y-129186250D03*
X239500000Y-132286250D03*
%TD*%
%TO.C,R118*%
X265000000Y-140675000D03*
X265000000Y-143775000D03*
%TD*%
D28*
%TO.C,LED12*%
X91500000Y-108495000D03*
X88500000Y-108495000D03*
%TD*%
D15*
%TO.C,TP11*%
X259000000Y-119675000D03*
%TD*%
D11*
%TO.C,R105*%
X244367500Y-129186250D03*
X244367500Y-132286250D03*
%TD*%
D27*
%TO.C,R76*%
X333000000Y-59550000D03*
X333000000Y-56450000D03*
%TD*%
%TO.C,R2*%
X162000000Y-79550000D03*
X162000000Y-76450000D03*
%TD*%
D29*
%TO.C,R27*%
X61000000Y-40350000D03*
X57900000Y-40350000D03*
%TD*%
D15*
%TO.C,TP28*%
X206000000Y-146000000D03*
%TD*%
D52*
%TO.C,H2*%
X367500000Y-12500000D03*
%TD*%
D27*
%TO.C,R111*%
X306367500Y-131225000D03*
X306367500Y-128125000D03*
%TD*%
D10*
%TO.C,C153*%
X80000000Y-156350000D03*
X80000000Y-161650000D03*
%TD*%
D15*
%TO.C,TP25*%
X208000000Y-139000000D03*
%TD*%
D36*
%TO.C,C139*%
X371500000Y-58437500D03*
X371500000Y-61562500D03*
%TD*%
D11*
%TO.C,R104*%
X239367500Y-140736250D03*
X239367500Y-143836250D03*
%TD*%
D45*
%TO.C,C136*%
X346000000Y-116562500D03*
X346000000Y-113437500D03*
%TD*%
D29*
%TO.C,R11*%
X142500000Y-129675000D03*
X139400000Y-129675000D03*
%TD*%
D25*
%TO.C,IC2*%
X333445000Y-72288000D03*
X332175000Y-72288000D03*
X330905000Y-72288000D03*
X329635000Y-72288000D03*
X328365000Y-72288000D03*
X327095000Y-72288000D03*
X325825000Y-72288000D03*
X324555000Y-72288000D03*
X324555000Y-81712000D03*
X325825000Y-81712000D03*
X327095000Y-81712000D03*
X328365000Y-81712000D03*
X329635000Y-81712000D03*
X330905000Y-81712000D03*
X332175000Y-81712000D03*
X333445000Y-81712000D03*
%TD*%
D14*
%TO.C,C62*%
X64375000Y-42850000D03*
X67500000Y-42850000D03*
%TD*%
D54*
%TO.C,IC13*%
X353000000Y-115650000D03*
X353000000Y-115000000D03*
X353000000Y-114350000D03*
X351000000Y-114350000D03*
X351000000Y-115000000D03*
X351000000Y-115650000D03*
%TD*%
D38*
%TO.C,J10*%
X118420000Y-152675000D03*
D39*
X123500000Y-152675000D03*
X128580000Y-152675000D03*
%TD*%
D11*
%TO.C,R122*%
X275000000Y-140675000D03*
X275000000Y-143775000D03*
%TD*%
D15*
%TO.C,TP29*%
X165000000Y-96962500D03*
%TD*%
D11*
%TO.C,R112*%
X306367500Y-140675000D03*
X306367500Y-143775000D03*
%TD*%
D40*
%TO.C,R24*%
X81900000Y-108540000D03*
X85000000Y-108540000D03*
%TD*%
D13*
%TO.C,C141*%
X29700000Y-125000000D03*
X35000000Y-125000000D03*
%TD*%
D11*
%TO.C,R116*%
X280000000Y-140675000D03*
X280000000Y-143775000D03*
%TD*%
D55*
%TO.C,J25*%
X297600000Y-20350000D03*
D56*
X302680000Y-20350000D03*
X307760000Y-20350000D03*
X312840000Y-20350000D03*
X317920000Y-20350000D03*
X323000000Y-20350000D03*
X328080000Y-20350000D03*
X333160000Y-20350000D03*
%TD*%
D43*
%TO.C,Z9*%
X316367500Y-138475000D03*
X316367500Y-134875000D03*
%TD*%
D25*
%TO.C,IC4*%
X306922500Y-111467000D03*
X308192500Y-111467000D03*
X309462500Y-111467000D03*
X310732500Y-111467000D03*
X312002500Y-111467000D03*
X313272500Y-111467000D03*
X314542500Y-111467000D03*
X315812500Y-111467000D03*
X315812500Y-102043000D03*
X314542500Y-102043000D03*
X313272500Y-102043000D03*
X312002500Y-102043000D03*
X310732500Y-102043000D03*
X309462500Y-102043000D03*
X308192500Y-102043000D03*
X306922500Y-102043000D03*
%TD*%
D43*
%TO.C,Z11*%
X306367500Y-138475000D03*
X306367500Y-134875000D03*
%TD*%
D26*
%TO.C,C15*%
X279930000Y-92286250D03*
X276805000Y-92286250D03*
%TD*%
D27*
%TO.C,R93*%
X303000000Y-59550000D03*
X303000000Y-56450000D03*
%TD*%
D12*
%TO.C,LED4*%
X259000000Y-142236250D03*
X259000000Y-139236250D03*
%TD*%
D40*
%TO.C,R23*%
X81900000Y-101040000D03*
X85000000Y-101040000D03*
%TD*%
D15*
%TO.C,TP12*%
X295000000Y-120000000D03*
%TD*%
%TO.C,TP13*%
X280000000Y-123675000D03*
%TD*%
D11*
%TO.C,R101*%
X234367500Y-129186250D03*
X234367500Y-132286250D03*
%TD*%
D41*
%TO.C,J26*%
X279525000Y-149356250D03*
D42*
X275715000Y-149356250D03*
X271905000Y-149356250D03*
X268095000Y-149356250D03*
X264285000Y-149356250D03*
X260475000Y-149356250D03*
%TD*%
D11*
%TO.C,R110*%
X311367500Y-140675000D03*
X311367500Y-143775000D03*
%TD*%
D15*
%TO.C,TP5*%
X323000000Y-64000000D03*
%TD*%
%TO.C,TP34*%
X165000000Y-124500000D03*
%TD*%
D46*
%TO.C,PS2*%
X262915000Y-98515000D03*
X262915000Y-101055000D03*
X262915000Y-108675000D03*
X262915000Y-113755000D03*
%TD*%
D11*
%TO.C,R100*%
X229367500Y-140736250D03*
X229367500Y-143836250D03*
%TD*%
D48*
%TO.C,K3*%
X365085000Y-51150000D03*
D39*
X365085000Y-38950000D03*
X353085000Y-38950000D03*
D37*
X353085000Y-51150000D03*
D39*
X359085000Y-53150000D03*
%TD*%
D38*
%TO.C,J11*%
X138420000Y-152675000D03*
D39*
X143500000Y-152675000D03*
X148580000Y-152675000D03*
%TD*%
D27*
%TO.C,R95*%
X303000000Y-46550000D03*
X303000000Y-43450000D03*
%TD*%
D36*
%TO.C,C132*%
X170000000Y-146875000D03*
X170000000Y-150000000D03*
%TD*%
D15*
%TO.C,TP1*%
X339000000Y-50000000D03*
%TD*%
D26*
%TO.C,C5*%
X246562500Y-115286250D03*
X243437500Y-115286250D03*
%TD*%
D29*
%TO.C,R123*%
X366550000Y-80000000D03*
X363450000Y-80000000D03*
%TD*%
D25*
%TO.C,IC1*%
X235555000Y-111467000D03*
X236825000Y-111467000D03*
X238095000Y-111467000D03*
X239365000Y-111467000D03*
X240635000Y-111467000D03*
X241905000Y-111467000D03*
X243175000Y-111467000D03*
X244445000Y-111467000D03*
X244445000Y-102043000D03*
X243175000Y-102043000D03*
X241905000Y-102043000D03*
X240635000Y-102043000D03*
X239365000Y-102043000D03*
X238095000Y-102043000D03*
X236825000Y-102043000D03*
X235555000Y-102043000D03*
%TD*%
D27*
%TO.C,R90*%
X313000000Y-40550000D03*
X313000000Y-37450000D03*
%TD*%
D43*
%TO.C,Z8*%
X244367500Y-138086250D03*
X244367500Y-134486250D03*
%TD*%
D26*
%TO.C,C13*%
X279930000Y-97286250D03*
X276805000Y-97286250D03*
%TD*%
D28*
%TO.C,LED5*%
X119500000Y-107175000D03*
X122500000Y-107175000D03*
%TD*%
D15*
%TO.C,TP27*%
X208000000Y-129000000D03*
%TD*%
D12*
%TO.C,LED2*%
X223367500Y-142236250D03*
X223367500Y-139236250D03*
%TD*%
D46*
%TO.C,PS3*%
X299282500Y-98515000D03*
X299282500Y-101055000D03*
X299282500Y-108675000D03*
X299282500Y-113755000D03*
%TD*%
D26*
%TO.C,C61*%
X64562500Y-53350000D03*
X61437500Y-53350000D03*
%TD*%
D27*
%TO.C,R33*%
X41000000Y-52850000D03*
X41000000Y-49750000D03*
%TD*%
D41*
%TO.C,J28*%
X315607500Y-149786250D03*
D42*
X311797500Y-149786250D03*
X307987500Y-149786250D03*
X304177500Y-149786250D03*
X300367500Y-149786250D03*
X296557500Y-149786250D03*
%TD*%
D33*
%TO.C,D4*%
X48500000Y-42850000D03*
X50824000Y-42850000D03*
%TD*%
D43*
%TO.C,Z5*%
X229367500Y-138086250D03*
X229367500Y-134486250D03*
%TD*%
D28*
%TO.C,LED1*%
X311500000Y-81000000D03*
X314500000Y-81000000D03*
%TD*%
D13*
%TO.C,C140*%
X29700000Y-116000000D03*
X35000000Y-116000000D03*
%TD*%
D34*
%TO.C,J29*%
X202500000Y-154502500D03*
D35*
X202500000Y-151962500D03*
%TD*%
D25*
%TO.C,IC8*%
X47150000Y-70350000D03*
X48420000Y-70350000D03*
X49690000Y-70350000D03*
X50960000Y-70350000D03*
X52230000Y-70350000D03*
X53500000Y-70350000D03*
X54770000Y-70350000D03*
X56040000Y-70350000D03*
X56040000Y-60926000D03*
X54770000Y-60926000D03*
X53500000Y-60926000D03*
X52230000Y-60926000D03*
X50960000Y-60926000D03*
X49690000Y-60926000D03*
X48420000Y-60926000D03*
X47150000Y-60926000D03*
%TD*%
D57*
%TO.C,PS6*%
X97000000Y-116760000D03*
D58*
X97000000Y-119300000D03*
X97000000Y-121840000D03*
X97000000Y-129460000D03*
X97000000Y-132000000D03*
X97000000Y-134540000D03*
%TD*%
D59*
%TO.C,IC5*%
X132075000Y-112613000D03*
X132725000Y-112613000D03*
X133375000Y-112613000D03*
X134025000Y-112613000D03*
X134675000Y-112613000D03*
X135325000Y-112613000D03*
X135975000Y-112613000D03*
X136625000Y-112613000D03*
X137275000Y-112613000D03*
X137925000Y-112613000D03*
X137925000Y-106737000D03*
X137275000Y-106737000D03*
X136625000Y-106737000D03*
X135975000Y-106737000D03*
X135325000Y-106737000D03*
X134675000Y-106737000D03*
X134025000Y-106737000D03*
X133375000Y-106737000D03*
X132725000Y-106737000D03*
X132075000Y-106737000D03*
%TD*%
D27*
%TO.C,R119*%
X270000000Y-131225000D03*
X270000000Y-128125000D03*
%TD*%
D34*
%TO.C,J7*%
X54380000Y-26962500D03*
D35*
X56920000Y-26962500D03*
X59460000Y-26962500D03*
X62000000Y-26962500D03*
X64540000Y-26962500D03*
%TD*%
D34*
%TO.C,J2*%
X355000000Y-32500000D03*
D35*
X357540000Y-32500000D03*
%TD*%
D26*
%TO.C,C56*%
X58500000Y-55350000D03*
X55375000Y-55350000D03*
%TD*%
D34*
%TO.C,J3*%
X340000000Y-143335000D03*
D35*
X337460000Y-143335000D03*
%TD*%
D34*
%TO.C,J1*%
X360000000Y-143335000D03*
D35*
X357460000Y-143335000D03*
%TD*%
D34*
%TO.C,J21*%
X56000000Y-95455000D03*
D35*
X56000000Y-92915000D03*
%TD*%
D32*
%TO.C,J12*%
X49380000Y-20350000D03*
X54460000Y-20350000D03*
X59540000Y-20350000D03*
X64620000Y-20350000D03*
%TD*%
D26*
%TO.C,C41*%
X95817500Y-55300000D03*
X98942500Y-55300000D03*
%TD*%
M02*
